<?xml version="1.0" encoding="UTF-8" standalone="no"?>
<!-- Generator: Adobe Illustrator 19.0.0, SVG Export Plug-In . SVG Version: 6.00 Build 0)  -->

<svg
   xmlns:dc="http://purl.org/dc/elements/1.1/"
   xmlns:cc="http://creativecommons.org/ns#"
   xmlns:rdf="http://www.w3.org/1999/02/22-rdf-syntax-ns#"
   xmlns:svg="http://www.w3.org/2000/svg"
   xmlns="http://www.w3.org/2000/svg"
   xmlns:sodipodi="http://sodipodi.sourceforge.net/DTD/sodipodi-0.dtd"
   xmlns:inkscape="http://www.inkscape.org/namespaces/inkscape"
   version="1.1"
   id="Capa_1"
   x="0px"
   y="0px"
   viewBox="0 0 100 100"
   xml:space="preserve"
   inkscape:version="0.91 r13725"
   sodipodi:docname="icon-producao.svg"
   width="100"
   height="100"><metadata
     id="metadata43"><rdf:RDF><cc:Work
         rdf:about=""><dc:format>image/svg+xml</dc:format><dc:type
           rdf:resource="http://purl.org/dc/dcmitype/StillImage" /><dc:title /></cc:Work></rdf:RDF></metadata><defs
     id="defs41" /><sodipodi:namedview
     pagecolor="#ffffff"
     bordercolor="#666666"
     borderopacity="1"
     objecttolerance="10"
     gridtolerance="10"
     guidetolerance="10"
     inkscape:pageopacity="0"
     inkscape:pageshadow="2"
     inkscape:window-width="1317"
     inkscape:window-height="744"
     id="namedview39"
     showgrid="false"
     inkscape:zoom="0.34562664"
     inkscape:cx="-58.604904"
     inkscape:cy="-344.75117"
     inkscape:window-x="1489"
     inkscape:window-y="24"
     inkscape:window-maximized="1"
     inkscape:current-layer="Capa_1" /><g
     id="g9"
     transform="translate(0,-412)" /><g
     id="g11"
     transform="translate(0,-412)" /><g
     id="g13"
     transform="translate(0,-412)" /><g
     id="g15"
     transform="translate(0,-412)" /><g
     id="g17"
     transform="translate(0,-412)" /><g
     id="g19"
     transform="translate(0,-412)" /><g
     id="g21"
     transform="translate(0,-412)" /><g
     id="g23"
     transform="translate(0,-412)" /><g
     id="g25"
     transform="translate(0,-412)" /><g
     id="g27"
     transform="translate(0,-412)" /><g
     id="g29"
     transform="translate(0,-412)" /><g
     id="g31"
     transform="translate(0,-412)" /><g
     id="g33"
     transform="translate(0,-412)" /><g
     id="g35"
     transform="translate(0,-412)" /><g
     id="g37"
     transform="translate(0,-412)" /><g
     transform="matrix(1.25,0,0,-1.25,1640.758,1906.3914)"
     inkscape:label="ink_ext_XXXXXX"
     id="g8605"><g
       transform="scale(0.1,0.1)"
       id="g8607" /></g><g
     id="g8168"
     transform="matrix(0.20172795,0,0,0.20172795,-1.6423552,-1.0455321)"
     style="fill:#58bdda;fill-opacity:1"><g
       id="g8170"
       style="fill:#58bdda;fill-opacity:1"><path
         id="path8172"
         d="m 480.6,11 c -11.3,0 -20.4,9.1 -20.4,20.4 l 0,218.3 -74.2,0 21.8,40.8 52.4,0 0,169.6 -428.8,0 c -11.3,0 -20.4,9.1 -20.4,20.4 0,11.3 9.1,20.4 20.4,20.4 l 449.2,0 c 11.3,0 20.4,-9.1 20.4,-20.4 L 501,31.4 C 501,20.1 491.9,11 480.6,11 Z"
         inkscape:connector-curvature="0"
         style="fill:#58bdda;fill-opacity:1" /><path
         id="path8174"
         d="m 106.8,419.3 248.2,0 c 50.4,-2.4 52.1,-45 42.1,-62 L 302.4,179.7 159.6,179.5 64.7,357.3 c -18.7,40.1 22.5,63.5 42.1,62 z"
         inkscape:connector-curvature="0"
         style="fill:#58bdda;fill-opacity:1" /><path
         id="path8176"
         d="m 161.4,92.1 0.3,0 -0.1,44.5 138.4,0 0.1,-44.5 0.3,0 c 11.3,0 20.4,-9.1 20.4,-20.4 0,-11.3 -9.1,-20.4 -20.4,-20.4 l -139,0 c -11.3,0 -20.4,9.1 -20.4,20.4 0,11.2 9.1,20.4 20.4,20.4 z"
         inkscape:connector-curvature="0"
         style="fill:#58bdda;fill-opacity:1" /></g></g></svg>