<?xml version="1.0" encoding="UTF-8" standalone="no"?>
<!-- Generator: Adobe Illustrator 19.0.0, SVG Export Plug-In . SVG Version: 6.00 Build 0)  -->

<svg
   xmlns:dc="http://purl.org/dc/elements/1.1/"
   xmlns:cc="http://creativecommons.org/ns#"
   xmlns:rdf="http://www.w3.org/1999/02/22-rdf-syntax-ns#"
   xmlns:svg="http://www.w3.org/2000/svg"
   xmlns="http://www.w3.org/2000/svg"
   xmlns:sodipodi="http://sodipodi.sourceforge.net/DTD/sodipodi-0.dtd"
   xmlns:inkscape="http://www.inkscape.org/namespaces/inkscape"
   version="1.1"
   id="Capa_1"
   x="0px"
   y="0px"
   viewBox="0 0 100 100"
   xml:space="preserve"
   inkscape:version="0.91 r13725"
   sodipodi:docname="icon-metodos-analiticos.svg"
   width="100"
   height="100"><metadata
     id="metadata43"><rdf:RDF><cc:Work
         rdf:about=""><dc:format>image/svg+xml</dc:format><dc:type
           rdf:resource="http://purl.org/dc/dcmitype/StillImage" /><dc:title /></cc:Work></rdf:RDF></metadata><defs
     id="defs41" /><sodipodi:namedview
     pagecolor="#ffffff"
     bordercolor="#666666"
     borderopacity="1"
     objecttolerance="10"
     gridtolerance="10"
     guidetolerance="10"
     inkscape:pageopacity="0"
     inkscape:pageshadow="2"
     inkscape:window-width="1317"
     inkscape:window-height="744"
     id="namedview39"
     showgrid="false"
     inkscape:zoom="1.9551596"
     inkscape:cx="-15.30699"
     inkscape:cy="15.103561"
     inkscape:window-x="1489"
     inkscape:window-y="24"
     inkscape:window-maximized="1"
     inkscape:current-layer="Capa_1" /><g
     id="g9"
     transform="translate(0,-412)" /><g
     id="g11"
     transform="translate(0,-412)" /><g
     id="g13"
     transform="translate(0,-412)" /><g
     id="g15"
     transform="translate(0,-412)" /><g
     id="g17"
     transform="translate(0,-412)" /><g
     id="g19"
     transform="translate(0,-412)" /><g
     id="g21"
     transform="translate(0,-412)" /><g
     id="g23"
     transform="translate(0,-412)" /><g
     id="g25"
     transform="translate(0,-412)" /><g
     id="g27"
     transform="translate(0,-412)" /><g
     id="g29"
     transform="translate(0,-412)" /><g
     id="g31"
     transform="translate(0,-412)" /><g
     id="g33"
     transform="translate(0,-412)" /><g
     id="g35"
     transform="translate(0,-412)" /><g
     id="g37"
     transform="translate(0,-412)" /><g
     transform="matrix(1.25,0,0,-1.25,1640.758,1906.3914)"
     inkscape:label="ink_ext_XXXXXX"
     id="g8605"><g
       transform="scale(0.1,0.1)"
       id="g8607" /></g><g
     id="g8301"
     transform="matrix(0.19435717,0,0,0.19435717,0.24456448,6.3243155)"
     style="fill:#58bdda;fill-opacity:1"><g
       id="g8247"
       style="fill:#58bdda;fill-opacity:1"><g
         id="g8249"
         style="fill:#58bdda;fill-opacity:1"><path
           id="path8251"
           d="m 380.465,275.273 c -22.646,0 -34.917,-6.962 -44.776,-12.556 -8.517,-4.833 -15.243,-8.649 -29.972,-8.649 -11.417,0 -17.92,2.191 -24.685,5.728 l 0,68.055 c 0,35.312 28.729,64.041 64.04,64.041 35.312,0 64.041,-28.729 64.041,-64.041 l 0,-57.286 c -7.522,2.769 -16.58,4.708 -28.648,4.708 z"
           inkscape:connector-curvature="0"
           style="fill:#58bdda;fill-opacity:1" /></g></g><g
       id="g8253"
       style="fill:#58bdda;fill-opacity:1"><g
         id="g8255"
         style="fill:#58bdda;fill-opacity:1"><path
           id="path8257"
           d="m 481.976,100.08 0,-30.036 -30,0 0,30.036 -42.862,0 0,-70.057 -128.082,0 0,70.057 -50.064,0 0,-70.057 -128.081,0 0,70.057 -42.863,0 0,-30.036 -30,0 0,30.036 -30.024,0 0,90.048 30.024,0 0,291.849 30,0 0,-30.037 391.951,0 0,30.036 30,0 0,-291.848 30.025,0 0,-90.048 -30.024,0 z m -421.952,321.86 0,-231.812 42.862,0 0,37.306 c 6.574,-1.986 14.551,-3.366 24.685,-3.366 22.646,0 34.917,6.962 44.776,12.556 8.517,4.833 15.243,8.649 29.972,8.649 13.577,0 20.301,-3.197 28.318,-7.714 l 0.33,0.586 0,-48.018 50.064,0 0,37.306 c 6.574,-1.986 14.551,-3.366 24.685,-3.366 22.646,0 34.917,6.962 44.776,12.556 8.517,4.833 15.243,8.649 29.972,8.649 13.577,0 20.301,-3.197 28.318,-7.714 l 0.33,0.586 0,-48.018 42.862,0 0,231.814 -391.95,0 z"
           inkscape:connector-curvature="0"
           style="fill:#58bdda;fill-opacity:1" /></g></g><g
       id="g8259"
       style="fill:#58bdda;fill-opacity:1"><g
         id="g8261"
         style="fill:#58bdda;fill-opacity:1"><path
           id="path8263"
           d="m 202.319,275.273 c -22.646,0 -34.917,-6.962 -44.776,-12.556 -8.517,-4.833 -15.243,-8.649 -29.972,-8.649 -11.417,0 -17.92,2.191 -24.685,5.728 l 0,68.055 c 0,35.312 28.729,64.041 64.041,64.041 35.312,0 64.04,-28.729 64.04,-64.041 l 0,-57.286 c -7.521,2.769 -16.58,4.708 -28.648,4.708 z"
           inkscape:connector-curvature="0"
           style="fill:#58bdda;fill-opacity:1" /></g></g><g
       id="g8265"
       style="fill:#58bdda;fill-opacity:1" /><g
       id="g8267"
       style="fill:#58bdda;fill-opacity:1" /><g
       id="g8269"
       style="fill:#58bdda;fill-opacity:1" /><g
       id="g8271"
       style="fill:#58bdda;fill-opacity:1" /><g
       id="g8273"
       style="fill:#58bdda;fill-opacity:1" /><g
       id="g8275"
       style="fill:#58bdda;fill-opacity:1" /><g
       id="g8277"
       style="fill:#58bdda;fill-opacity:1" /><g
       id="g8279"
       style="fill:#58bdda;fill-opacity:1" /><g
       id="g8281"
       style="fill:#58bdda;fill-opacity:1" /><g
       id="g8283"
       style="fill:#58bdda;fill-opacity:1" /><g
       id="g8285"
       style="fill:#58bdda;fill-opacity:1" /><g
       id="g8287"
       style="fill:#58bdda;fill-opacity:1" /><g
       id="g8289"
       style="fill:#58bdda;fill-opacity:1" /><g
       id="g8291"
       style="fill:#58bdda;fill-opacity:1" /><g
       id="g8293"
       style="fill:#58bdda;fill-opacity:1" /></g></svg>