<?xml version="1.0" encoding="UTF-8" standalone="no"?>
<!-- Generator: Adobe Illustrator 19.0.0, SVG Export Plug-In . SVG Version: 6.00 Build 0)  -->

<svg
   xmlns:dc="http://purl.org/dc/elements/1.1/"
   xmlns:cc="http://creativecommons.org/ns#"
   xmlns:rdf="http://www.w3.org/1999/02/22-rdf-syntax-ns#"
   xmlns:svg="http://www.w3.org/2000/svg"
   xmlns="http://www.w3.org/2000/svg"
   xmlns:sodipodi="http://sodipodi.sourceforge.net/DTD/sodipodi-0.dtd"
   xmlns:inkscape="http://www.inkscape.org/namespaces/inkscape"
   version="1.1"
   id="Capa_1"
   x="0px"
   y="0px"
   viewBox="0 0 100 100"
   xml:space="preserve"
   inkscape:version="0.91 r13725"
   sodipodi:docname="icon-pcr.svg"
   width="100"
   height="100"><metadata
     id="metadata43"><rdf:RDF><cc:Work
         rdf:about=""><dc:format>image/svg+xml</dc:format><dc:type
           rdf:resource="http://purl.org/dc/dcmitype/StillImage" /><dc:title /></cc:Work></rdf:RDF></metadata><defs
     id="defs41" /><sodipodi:namedview
     pagecolor="#ffffff"
     bordercolor="#666666"
     borderopacity="1"
     objecttolerance="10"
     gridtolerance="10"
     guidetolerance="10"
     inkscape:pageopacity="0"
     inkscape:pageshadow="2"
     inkscape:window-width="1317"
     inkscape:window-height="744"
     id="namedview39"
     showgrid="false"
     inkscape:zoom="3.3860611"
     inkscape:cx="47.60059"
     inkscape:cy="28.909875"
     inkscape:window-x="1489"
     inkscape:window-y="24"
     inkscape:window-maximized="1"
     inkscape:current-layer="g11265" /><g
     id="g9"
     transform="translate(0,-412)" /><g
     id="g11"
     transform="translate(0,-412)" /><g
     id="g13"
     transform="translate(0,-412)" /><g
     id="g15"
     transform="translate(0,-412)" /><g
     id="g17"
     transform="translate(0,-412)" /><g
     id="g19"
     transform="translate(0,-412)" /><g
     id="g21"
     transform="translate(0,-412)" /><g
     id="g23"
     transform="translate(0,-412)" /><g
     id="g25"
     transform="translate(0,-412)" /><g
     id="g27"
     transform="translate(0,-412)" /><g
     id="g29"
     transform="translate(0,-412)" /><g
     id="g31"
     transform="translate(0,-412)" /><g
     id="g33"
     transform="translate(0,-412)" /><g
     id="g35"
     transform="translate(0,-412)" /><g
     id="g37"
     transform="translate(0,-412)" /><g
     transform="matrix(1.25,0,0,-1.25,1640.758,1906.3914)"
     inkscape:label="ink_ext_XXXXXX"
     id="g8605"><g
       transform="scale(0.1,0.1)"
       id="g8607" /></g><g
     id="g11265"
     transform="matrix(4.0804529,0,0,4.0804529,214.95569,-426.28649)"><path
       style="opacity:0.98999999;fill:#58bdda;fill-opacity:1;fill-rule:nonzero;stroke:none"
       d="m -40.714935,112.529 c -1.99355,0 -4.056637,1.03157 -6.291907,3.12944 -2.51011,-2.64751 -5.020143,-1.99509 -5.123033,-1.96056 -0.34353,0.0687 -0.549495,0.37822 -0.549495,0.6883 0,0.0691 0.03398,0.13713 0.03398,0.20582 0.10287,0.37807 0.515465,0.61829 0.894605,0.51503 0.10181,0 1.821291,-0.41177 3.711961,1.61594 -1.89067,2.02917 -3.610343,1.61737 -3.679413,1.61737 -0.41188,-0.10323 -0.824283,0.10279 -0.927153,0.51503 -0.0338,0.0687 -0.03398,0.13765 -0.03398,0.17184 0,0.34461 0.205965,0.61955 0.549495,0.72277 0.10289,0.0345 2.612923,0.68681 5.123033,-1.96105 2.23527,2.09822 4.29828,3.12992 6.32637,3.12992 2.40685,0 4.297524,-1.51263 5.880264,-3.12992 2.40687,2.13275 5.123505,1.30689 6.256965,0.51695 0.31044,-0.24173 0.413563,-0.68809 0.173273,-1.03198 -0.20647,-0.30901 -0.688634,-0.41213 -0.997994,-0.17184 -0.10324,0.0687 -2.235482,1.47849 -4.401702,-0.37909 2.16622,-1.82195 4.298462,-0.44649 4.401702,-0.37814 0.30936,0.24101 0.791524,0.13818 0.997994,-0.20534 0.24029,-0.30935 0.137167,-0.79179 -0.173273,-1.03246 -1.13346,-0.7554 -3.850095,-1.58062 -6.256965,0.55141 -1.58274,-1.61691 -3.473337,-3.12944 -5.914727,-3.12944 z m 0.413557,1.47809 c 0.41224,0.0691 0.790335,0.13732 1.168395,0.27618 l 0,4.84685 c -0.37806,0.1716 -0.756155,0.24148 -1.168395,0.31017 l 0,-5.4332 z m -1.239235,0.0689 0,5.26041 c -0.3777,-0.0687 -0.755686,-0.17207 -1.167916,-0.34367 l 0,-4.53764 c 0.41223,-0.17194 0.790216,-0.27622 1.167916,-0.3791 z m 3.645429,0.85967 c 0.72268,0.48093 1.409388,1.10023 2.062998,1.78729 -0.65361,0.65396 -1.340318,1.30708 -2.062998,1.78873 l 0,-3.57602 z m -6.052101,0.17135 0,3.23331 c -0.65251,-0.41368 -1.305387,-0.96341 -2.028057,-1.61737 0.72267,-0.65253 1.375547,-1.20226 2.028057,-1.61594 z"
       id="path8859-7"
       inkscape:connector-curvature="0" /></g></svg>