<?xml version="1.0" encoding="UTF-8" standalone="no"?>
<!-- Generator: Adobe Illustrator 19.0.0, SVG Export Plug-In . SVG Version: 6.00 Build 0)  -->

<svg
   xmlns:dc="http://purl.org/dc/elements/1.1/"
   xmlns:cc="http://creativecommons.org/ns#"
   xmlns:rdf="http://www.w3.org/1999/02/22-rdf-syntax-ns#"
   xmlns:svg="http://www.w3.org/2000/svg"
   xmlns="http://www.w3.org/2000/svg"
   xmlns:sodipodi="http://sodipodi.sourceforge.net/DTD/sodipodi-0.dtd"
   xmlns:inkscape="http://www.inkscape.org/namespaces/inkscape"
   version="1.1"
   id="Capa_1"
   x="0px"
   y="0px"
   viewBox="0 0 100 100"
   xml:space="preserve"
   inkscape:version="0.91 r13725"
   sodipodi:docname="icon-peptideos.svg"
   width="100"
   height="100"><metadata
     id="metadata43"><rdf:RDF><cc:Work
         rdf:about=""><dc:format>image/svg+xml</dc:format><dc:type
           rdf:resource="http://purl.org/dc/dcmitype/StillImage" /><dc:title /></cc:Work></rdf:RDF></metadata><defs
     id="defs41" /><sodipodi:namedview
     pagecolor="#ffffff"
     bordercolor="#666666"
     borderopacity="1"
     objecttolerance="10"
     gridtolerance="10"
     guidetolerance="10"
     inkscape:pageopacity="0"
     inkscape:pageshadow="2"
     inkscape:window-width="1317"
     inkscape:window-height="744"
     id="namedview39"
     showgrid="false"
     inkscape:zoom="0.24439495"
     inkscape:cx="-78.731285"
     inkscape:cy="-232.82588"
     inkscape:window-x="1489"
     inkscape:window-y="24"
     inkscape:window-maximized="1"
     inkscape:current-layer="Capa_1" /><g
     id="g9"
     transform="translate(0,-412)" /><g
     id="g11"
     transform="translate(0,-412)" /><g
     id="g13"
     transform="translate(0,-412)" /><g
     id="g15"
     transform="translate(0,-412)" /><g
     id="g17"
     transform="translate(0,-412)" /><g
     id="g19"
     transform="translate(0,-412)" /><g
     id="g21"
     transform="translate(0,-412)" /><g
     id="g23"
     transform="translate(0,-412)" /><g
     id="g25"
     transform="translate(0,-412)" /><g
     id="g27"
     transform="translate(0,-412)" /><g
     id="g29"
     transform="translate(0,-412)" /><g
     id="g31"
     transform="translate(0,-412)" /><g
     id="g33"
     transform="translate(0,-412)" /><g
     id="g35"
     transform="translate(0,-412)" /><g
     id="g37"
     transform="translate(0,-412)" /><g
     transform="matrix(1.25,0,0,-1.25,1640.758,1906.3914)"
     inkscape:label="ink_ext_XXXXXX"
     id="g8605"><g
       transform="scale(0.1,0.1)"
       id="g8607" /></g><g
     id="g8437"
     transform="matrix(0.35953911,0,0,0.35953911,0,3.0251118)"
     style="fill:#58bdda;fill-opacity:1"><g
       id="g8391"
       style="fill:#58bdda;fill-opacity:1"><path
         id="path8393"
         d="m 214,4.946 c -15.324,0 -29.312,5.694 -39.99,15.066 42.374,11.303 73.872,49.529 74.96,95.157 15.54,-10.985 25.696,-29.08 25.696,-49.558 C 274.666,32.107 247.505,4.946 214,4.946 Z"
         inkscape:connector-curvature="0"
         style="fill:#58bdda;fill-opacity:1" /><path
         id="path8395"
         d="m 148.001,218.611 c -22.367,0 -43.057,-7.313 -59.812,-19.668 -0.552,3.29 -0.854,6.664 -0.854,10.111 0,33.505 27.161,60.666 60.666,60.666 33.505,0 60.666,-27.161 60.666,-60.666 0,-3.447 -0.303,-6.821 -0.855,-10.111 -16.754,12.354 -37.444,19.668 -59.811,19.668 z"
         inkscape:connector-curvature="0"
         style="fill:#58bdda;fill-opacity:1" /><path
         id="path8397"
         d="m 148.001,41.611 c -2.81,0 -5.579,0.164 -8.31,0.461 4.272,10.177 6.641,21.344 6.641,33.055 0,39.352 -26.68,72.569 -62.895,82.569 13.412,21.557 37.306,35.915 64.564,35.915 41.974,0 76,-34.026 76,-76 0,-41.974 -34.026,-76 -76,-76 z"
         inkscape:connector-curvature="0"
         style="fill:#58bdda;fill-opacity:1" /><circle
         id="circle8399"
         r="60.666"
         cy="75.125999"
         cx="60.666"
         style="fill:#58bdda;fill-opacity:1" /></g><g
       id="g8401"
       style="fill:#58bdda;fill-opacity:1" /><g
       id="g8403"
       style="fill:#58bdda;fill-opacity:1" /><g
       id="g8405"
       style="fill:#58bdda;fill-opacity:1" /><g
       id="g8407"
       style="fill:#58bdda;fill-opacity:1" /><g
       id="g8409"
       style="fill:#58bdda;fill-opacity:1" /><g
       id="g8411"
       style="fill:#58bdda;fill-opacity:1" /><g
       id="g8413"
       style="fill:#58bdda;fill-opacity:1" /><g
       id="g8415"
       style="fill:#58bdda;fill-opacity:1" /><g
       id="g8417"
       style="fill:#58bdda;fill-opacity:1" /><g
       id="g8419"
       style="fill:#58bdda;fill-opacity:1" /><g
       id="g8421"
       style="fill:#58bdda;fill-opacity:1" /><g
       id="g8423"
       style="fill:#58bdda;fill-opacity:1" /><g
       id="g8425"
       style="fill:#58bdda;fill-opacity:1" /><g
       id="g8427"
       style="fill:#58bdda;fill-opacity:1" /><g
       id="g8429"
       style="fill:#58bdda;fill-opacity:1" /></g></svg>