<?xml version="1.0" encoding="UTF-8" standalone="no"?>
<!-- Generator: Adobe Illustrator 19.0.0, SVG Export Plug-In . SVG Version: 6.00 Build 0)  -->

<svg
   xmlns:dc="http://purl.org/dc/elements/1.1/"
   xmlns:cc="http://creativecommons.org/ns#"
   xmlns:rdf="http://www.w3.org/1999/02/22-rdf-syntax-ns#"
   xmlns:svg="http://www.w3.org/2000/svg"
   xmlns="http://www.w3.org/2000/svg"
   xmlns:sodipodi="http://sodipodi.sourceforge.net/DTD/sodipodi-0.dtd"
   xmlns:inkscape="http://www.inkscape.org/namespaces/inkscape"
   version="1.1"
   id="Capa_1"
   x="0px"
   y="0px"
   viewBox="0 0 100 100"
   xml:space="preserve"
   inkscape:version="0.91 r13725"
   sodipodi:docname="icon-citometria.svg"
   width="100"
   height="100"><metadata
     id="metadata43"><rdf:RDF><cc:Work
         rdf:about=""><dc:format>image/svg+xml</dc:format><dc:type
           rdf:resource="http://purl.org/dc/dcmitype/StillImage" /><dc:title /></cc:Work></rdf:RDF></metadata><defs
     id="defs41" /><sodipodi:namedview
     pagecolor="#ffffff"
     bordercolor="#666666"
     borderopacity="1"
     objecttolerance="10"
     gridtolerance="10"
     guidetolerance="10"
     inkscape:pageopacity="0"
     inkscape:pageshadow="2"
     inkscape:window-width="1317"
     inkscape:window-height="744"
     id="namedview39"
     showgrid="false"
     inkscape:zoom="0.97757978"
     inkscape:cx="-111.46282"
     inkscape:cy="-37.668035"
     inkscape:window-x="1489"
     inkscape:window-y="24"
     inkscape:window-maximized="1"
     inkscape:current-layer="Capa_1" /><g
     id="g9"
     transform="translate(0,-412)" /><g
     id="g11"
     transform="translate(0,-412)" /><g
     id="g13"
     transform="translate(0,-412)" /><g
     id="g15"
     transform="translate(0,-412)" /><g
     id="g17"
     transform="translate(0,-412)" /><g
     id="g19"
     transform="translate(0,-412)" /><g
     id="g21"
     transform="translate(0,-412)" /><g
     id="g23"
     transform="translate(0,-412)" /><g
     id="g25"
     transform="translate(0,-412)" /><g
     id="g27"
     transform="translate(0,-412)" /><g
     id="g29"
     transform="translate(0,-412)" /><g
     id="g31"
     transform="translate(0,-412)" /><g
     id="g33"
     transform="translate(0,-412)" /><g
     id="g35"
     transform="translate(0,-412)" /><g
     id="g37"
     transform="translate(0,-412)" /><g
     transform="matrix(1.25,0,0,-1.25,1640.758,1906.3914)"
     inkscape:label="ink_ext_XXXXXX"
     id="g8605"><g
       transform="scale(0.1,0.1)"
       id="g8607" /></g><path
     inkscape:connector-curvature="0"
     id="path9266-8"
     style="fill:#58bdda;fill-opacity:1;fill-rule:nonzero;stroke:none"
     d="m 97.203575,78.741914 c 4.527055,5.702147 3.440465,14.07749 -2.411258,18.585161 C 88.958423,101.68458 80.583339,100.59792 76.20761,94.915817 73.558274,91.478462 72.849939,87.35728 73.800308,83.604433 L 58.599401,70.638234 c -0.167925,0.135508 -0.512206,0.398743 -0.689468,0.531009 -2.407237,1.853342 -5.156745,2.736151 -7.936013,2.685125 l -0.315104,6.000783 c 1.979384,0.256751 3.691513,1.412132 5.016116,3.131717 2.91886,3.783191 2.226864,9.116161 -1.581095,12.18609 -3.788248,2.917952 -9.267617,2.207023 -12.185764,-1.581031 -2.898566,-3.940094 -2.206569,-9.273 1.58103,-12.186089 1.030182,-0.795021 2.023927,-1.285118 3.14851,-1.60891 l 0.221091,-6.476421 c -2.377672,-0.771875 -4.81253,-2.327943 -6.532115,-4.562263 l -12.562593,9.678745 c 0.781406,4.744777 -0.94194,9.633619 -4.922687,12.836202 C 15.841304,95.761605 7.6144364,94.694272 3.1051448,88.842288 -1.3975981,82.98998 -0.31074924,74.61334 5.5164023,70.257516 10.68028,66.279946 17.767004,66.580073 22.492653,70.752216 l 14.308891,-7.588491 c -0.448666,-2.540217 -0.24119,-5.29945 0.832497,-7.640879 L 28.36707,49.369569 c -2.201382,1.415957 -5.225601,0.867767 -6.794572,-1.353196 -1.745908,-2.081955 -1.311441,-5.430743 0.909004,-7.006262 2.236005,-1.721142 5.590823,-1.285832 7.159081,0.928843 0.92612,1.205758 1.356697,2.658737 1.027653,4.008043 l 8.966649,6.120794 c 0.556295,-0.700944 1.41479,-1.362338 2.103545,-1.898533 1.548158,-1.19104 3.364544,-2.037931 5.11875,-2.431356 L 45.686305,32.867918 C 42.813544,32.339504 40.246679,30.614343 38.410584,28.054156 33.883008,22.355575 34.97057,13.973424 40.822295,9.4658184 c 5.833569,-4.3556296 14.055704,-3.28888 18.584641,2.4111926 4.50767,5.851725 3.420238,14.233811 -2.411647,18.588338 -1.22281,1.080819 -2.711902,1.816386 -4.161575,2.247352 l -0.08947,15.015994 c 2.414046,0.467469 4.717546,1.848479 6.650766,3.648332 l 3.366554,-2.040914 c -2.118717,-3.992093 -1.010537,-8.961397 2.604339,-11.741767 4.300324,-3.316824 10.241782,-2.545922 13.556467,1.758876 3.183651,4.127795 2.393427,10.2187 -1.739036,13.403648 -3.610662,2.785298 -8.545344,2.610369 -12.05901,-0.172464 l -3.380559,2.198141 c 1.584597,3.300356 1.718743,7.037448 0.502481,10.443098 l 16.372561,11.105206 c 5.700332,-4.527316 14.075415,-3.440662 18.584707,2.411257 l 0,0" /></svg>