<?xml version="1.0" encoding="UTF-8" standalone="no"?>
<!-- Generator: Adobe Illustrator 19.0.0, SVG Export Plug-In . SVG Version: 6.00 Build 0)  -->

<svg
   xmlns:dc="http://purl.org/dc/elements/1.1/"
   xmlns:cc="http://creativecommons.org/ns#"
   xmlns:rdf="http://www.w3.org/1999/02/22-rdf-syntax-ns#"
   xmlns:svg="http://www.w3.org/2000/svg"
   xmlns="http://www.w3.org/2000/svg"
   xmlns:sodipodi="http://sodipodi.sourceforge.net/DTD/sodipodi-0.dtd"
   xmlns:inkscape="http://www.inkscape.org/namespaces/inkscape"
   version="1.1"
   id="Capa_1"
   x="0px"
   y="0px"
   viewBox="0 0 100 100"
   xml:space="preserve"
   inkscape:version="0.91 r13725"
   sodipodi:docname="icon-animais-laboratorio.svg"
   width="100"
   height="100"><metadata
     id="metadata43"><rdf:RDF><cc:Work
         rdf:about=""><dc:format>image/svg+xml</dc:format><dc:type
           rdf:resource="http://purl.org/dc/dcmitype/StillImage" /><dc:title /></cc:Work></rdf:RDF></metadata><defs
     id="defs41" /><sodipodi:namedview
     pagecolor="#ffffff"
     bordercolor="#666666"
     borderopacity="1"
     objecttolerance="10"
     gridtolerance="10"
     guidetolerance="10"
     inkscape:pageopacity="0"
     inkscape:pageshadow="2"
     inkscape:window-width="1391"
     inkscape:window-height="876"
     id="namedview39"
     showgrid="false"
     inkscape:zoom="1.6735605"
     inkscape:cx="-28.649377"
     inkscape:cy="6.3999779"
     inkscape:window-x="49"
     inkscape:window-y="24"
     inkscape:window-maximized="1"
     inkscape:current-layer="Capa_1" /><g
     id="g9"
     transform="translate(0,-412)" /><g
     id="g11"
     transform="translate(0,-412)" /><g
     id="g13"
     transform="translate(0,-412)" /><g
     id="g15"
     transform="translate(0,-412)" /><g
     id="g17"
     transform="translate(0,-412)" /><g
     id="g19"
     transform="translate(0,-412)" /><g
     id="g21"
     transform="translate(0,-412)" /><g
     id="g23"
     transform="translate(0,-412)" /><g
     id="g25"
     transform="translate(0,-412)" /><g
     id="g27"
     transform="translate(0,-412)" /><g
     id="g29"
     transform="translate(0,-412)" /><g
     id="g31"
     transform="translate(0,-412)" /><g
     id="g33"
     transform="translate(0,-412)" /><g
     id="g35"
     transform="translate(0,-412)" /><g
     id="g37"
     transform="translate(0,-412)" /><g
     id="g8576"
     transform="matrix(0.1626856,0,0,0.1626856,0.43661358,-17.416632)"
     style="opacity:1"><g
       id="g8532"
       style="fill:#58bdda;fill-opacity:1;fill-rule:nonzero"><g
         id="g8534"
         style="fill:#58bdda;fill-opacity:1;fill-rule:nonzero"><path
           id="path8536"
           d="m 49.893,443.325 c -0.948,1.185 -1.71,2.069 -2.076,2.343 -15.98,12.01 -22.065,1.155 -37.096,13.068 -2.432,1.927 -5.852,12.863 -8.728,23.611 -3.051,11.403 -4.03,22.597 7.774,22.597 l 0.954,0 26.326,0 350.228,0 21.397,0 65.34,0 c 6.314,0 12.544,-1.516 18.125,-4.469 209.43,-110.773 89.53,-238.558 47.381,-299.686 -32.105,-46.56 -13.294,-93.732 -13.294,-93.732 0,0 -73.648,25.148 16.166,141.399 58.492,75.709 25.561,129.222 -4.522,157.342 3.039,-11.386 4.623,-23.367 4.517,-35.737 -0.632,-73.954 -61.864,-132.955 -135.819,-132.55 -46.553,0.254 -89.093,8.936 -127.575,23.024 4.361,13.554 4.926,28.264 1.469,43.15 -4.661,20.072 -16.239,38.161 -32.599,50.935 -16.18,12.633 -36.417,19.591 -56.986,19.591 l -64.054,0 -18.434,0 c -23.825,24.23 -43.343,48.33 -58.494,69.114 z m 70.719,-35.592 c 11.543,0.604 20.411,10.452 19.807,21.995 -0.604,11.543 -10.452,20.411 -21.995,19.807 -11.543,-0.604 -20.411,-10.452 -19.807,-21.995 0.604,-11.543 10.452,-20.411 21.995,-19.807 z"
           inkscape:connector-curvature="0"
           style="fill:#58bdda;fill-opacity:1;fill-rule:nonzero" /><path
           id="path8538"
           d="m 133.414,350.262 57.461,0 c 31.426,0 59.147,-21.383 66.257,-51.995 2.436,-10.488 2.048,-20.151 -0.436,-28.786 -7.871,-27.356 -36.847,-44.365 -64.227,-44.365 -13.197,0 -26.016,3.947 -35.929,12.589 -46.699,40.712 -29.72,112.557 -29.72,112.557 l 6.594,0 z"
           inkscape:connector-curvature="0"
           style="fill:#58bdda;fill-opacity:1;fill-rule:nonzero" /></g></g><g
       id="g8540" /><g
       id="g8542" /><g
       id="g8544" /><g
       id="g8546" /><g
       id="g8548" /><g
       id="g8550" /><g
       id="g8552" /><g
       id="g8554" /><g
       id="g8556" /><g
       id="g8558" /><g
       id="g8560" /><g
       id="g8562" /><g
       id="g8564" /><g
       id="g8566" /><g
       id="g8568" /></g><g
     transform="matrix(1.25,0,0,-1.25,1640.758,1906.3914)"
     inkscape:label="ink_ext_XXXXXX"
     id="g8605"><g
       transform="scale(0.1,0.1)"
       id="g8607" /></g></svg>