<?xml version="1.0" encoding="UTF-8" standalone="no"?>
<!-- Generator: Adobe Illustrator 19.0.0, SVG Export Plug-In . SVG Version: 6.00 Build 0)  -->

<svg
   xmlns:dc="http://purl.org/dc/elements/1.1/"
   xmlns:cc="http://creativecommons.org/ns#"
   xmlns:rdf="http://www.w3.org/1999/02/22-rdf-syntax-ns#"
   xmlns:svg="http://www.w3.org/2000/svg"
   xmlns="http://www.w3.org/2000/svg"
   xmlns:sodipodi="http://sodipodi.sourceforge.net/DTD/sodipodi-0.dtd"
   xmlns:inkscape="http://www.inkscape.org/namespaces/inkscape"
   version="1.1"
   id="Capa_1"
   x="0px"
   y="0px"
   viewBox="0 0 100 100"
   xml:space="preserve"
   inkscape:version="0.91 r13725"
   sodipodi:docname="icon-nanotecnologia.svg"
   width="100"
   height="100"><metadata
     id="metadata43"><rdf:RDF><cc:Work
         rdf:about=""><dc:format>image/svg+xml</dc:format><dc:type
           rdf:resource="http://purl.org/dc/dcmitype/StillImage" /><dc:title /></cc:Work></rdf:RDF></metadata><defs
     id="defs41" /><sodipodi:namedview
     pagecolor="#ffffff"
     bordercolor="#666666"
     borderopacity="1"
     objecttolerance="10"
     gridtolerance="10"
     guidetolerance="10"
     inkscape:pageopacity="0"
     inkscape:pageshadow="2"
     inkscape:window-width="1317"
     inkscape:window-height="744"
     id="namedview39"
     showgrid="false"
     inkscape:zoom="2.3943067"
     inkscape:cx="17.2031"
     inkscape:cy="29.119347"
     inkscape:window-x="1489"
     inkscape:window-y="24"
     inkscape:window-maximized="1"
     inkscape:current-layer="g11241" /><g
     id="g9"
     transform="translate(0,-412)" /><g
     id="g11"
     transform="translate(0,-412)" /><g
     id="g13"
     transform="translate(0,-412)" /><g
     id="g15"
     transform="translate(0,-412)" /><g
     id="g17"
     transform="translate(0,-412)" /><g
     id="g19"
     transform="translate(0,-412)" /><g
     id="g21"
     transform="translate(0,-412)" /><g
     id="g23"
     transform="translate(0,-412)" /><g
     id="g25"
     transform="translate(0,-412)" /><g
     id="g27"
     transform="translate(0,-412)" /><g
     id="g29"
     transform="translate(0,-412)" /><g
     id="g31"
     transform="translate(0,-412)" /><g
     id="g33"
     transform="translate(0,-412)" /><g
     id="g35"
     transform="translate(0,-412)" /><g
     id="g37"
     transform="translate(0,-412)" /><g
     transform="matrix(1.25,0,0,-1.25,1640.758,1906.3914)"
     inkscape:label="ink_ext_XXXXXX"
     id="g8605"><g
       transform="scale(0.1,0.1)"
       id="g8607" /></g><g
     id="g11241"
     transform="matrix(5.2329517,0,0,5.2329517,254.2397,-505.86183)"><path
       style="fill:#58bdda;fill-opacity:1;fill-rule:nonzero;stroke:none"
       d="m -45.22936,96.669047 c -0.08284,-0.004 -0.168459,0.01561 -0.245589,0.05972 -0.20569,0.11763 -0.264685,0.382583 -0.147055,0.588592 l 1.647836,2.884363 -1.647836,2.91423 c -0.0893,0.14719 -0.0893,0.29393 0,0.44079 l 1.647836,2.88474 -1.530267,2.67797 -2.649228,0 c -0.23526,0 -0.441538,0.20641 -0.441538,0.44228 0,0.23525 0.206278,0.44079 0.441538,0.44079 l 2.649228,0 1.677322,2.88474 c 0.0588,0.14719 0.2065,0.20603 0.38294,0.20603 l 3.590528,0 c 0.14688,0 0.294207,-0.0588 0.382567,-0.20603 l 1.648583,-2.88474 3.35539,0 c 0.14688,0 0.294123,-0.088 0.382193,-0.23514 l 1.678068,-2.88436 2.501427,0 c 0.23526,0 0.441538,-0.20629 0.441538,-0.44154 0,-0.23526 -0.206278,-0.44154 -0.441538,-0.44154 l -2.501427,0 -1.678068,-2.88399 c -0.0881,-0.14718 -0.235313,-0.20603 -0.382193,-0.20603 l -3.35539,0 -1.531387,-2.7082 1.678442,-2.884363 c 0.11762,-0.206009 0.02941,-0.470962 -0.176541,-0.588592 -0.20569,-0.11763 -0.471336,-0.05893 -0.588966,0.147055 l -1.676949,2.914225 -3.090766,0 -1.678068,-2.914225 c -0.07371,-0.128763 -0.204556,-0.200158 -0.34263,-0.206773 z m 2.020698,3.974213 3.090766,0 1.559006,2.67834 -1.559006,2.67834 -3.090766,0 -1.559752,-2.67834 1.559752,-2.67834 z m 0,6.23976 3.090766,0 1.559006,2.67871 -1.559006,2.6776 -3.090766,0 -1.559752,-2.6776 1.559752,-2.67871 z"
       id="path9896-0"
       inkscape:connector-curvature="0" /></g></svg>