<?xml version="1.0" encoding="UTF-8" standalone="no"?>
<!-- Generator: Adobe Illustrator 19.0.0, SVG Export Plug-In . SVG Version: 6.00 Build 0)  -->

<svg
   xmlns:dc="http://purl.org/dc/elements/1.1/"
   xmlns:cc="http://creativecommons.org/ns#"
   xmlns:rdf="http://www.w3.org/1999/02/22-rdf-syntax-ns#"
   xmlns:svg="http://www.w3.org/2000/svg"
   xmlns="http://www.w3.org/2000/svg"
   xmlns:sodipodi="http://sodipodi.sourceforge.net/DTD/sodipodi-0.dtd"
   xmlns:inkscape="http://www.inkscape.org/namespaces/inkscape"
   version="1.1"
   id="Capa_1"
   x="0px"
   y="0px"
   viewBox="0 0 100 100"
   xml:space="preserve"
   inkscape:version="0.91 r13725"
   sodipodi:docname="icon-bioprospeccao.svg"
   width="100"
   height="100"><metadata
     id="metadata43"><rdf:RDF><cc:Work
         rdf:about=""><dc:format>image/svg+xml</dc:format><dc:type
           rdf:resource="http://purl.org/dc/dcmitype/StillImage" /><dc:title /></cc:Work></rdf:RDF></metadata><defs
     id="defs41" /><sodipodi:namedview
     pagecolor="#ffffff"
     bordercolor="#666666"
     borderopacity="1"
     objecttolerance="10"
     gridtolerance="10"
     guidetolerance="10"
     inkscape:pageopacity="0"
     inkscape:pageshadow="2"
     inkscape:window-width="1317"
     inkscape:window-height="744"
     id="namedview39"
     showgrid="false"
     inkscape:zoom="0.97757974"
     inkscape:cx="-81.976784"
     inkscape:cy="-45.640138"
     inkscape:window-x="1489"
     inkscape:window-y="24"
     inkscape:window-maximized="1"
     inkscape:current-layer="Capa_1" /><g
     id="g9"
     transform="translate(0,-412)" /><g
     id="g11"
     transform="translate(0,-412)" /><g
     id="g13"
     transform="translate(0,-412)" /><g
     id="g15"
     transform="translate(0,-412)" /><g
     id="g17"
     transform="translate(0,-412)" /><g
     id="g19"
     transform="translate(0,-412)" /><g
     id="g21"
     transform="translate(0,-412)" /><g
     id="g23"
     transform="translate(0,-412)" /><g
     id="g25"
     transform="translate(0,-412)" /><g
     id="g27"
     transform="translate(0,-412)" /><g
     id="g29"
     transform="translate(0,-412)" /><g
     id="g31"
     transform="translate(0,-412)" /><g
     id="g33"
     transform="translate(0,-412)" /><g
     id="g35"
     transform="translate(0,-412)" /><g
     id="g37"
     transform="translate(0,-412)" /><g
     transform="matrix(1.25,0,0,-1.25,1640.758,1906.3914)"
     inkscape:label="ink_ext_XXXXXX"
     id="g8605"><g
       transform="scale(0.1,0.1)"
       id="g8607" /></g><g
     id="g8228"
     transform="matrix(0.22227061,0,0,0.22227061,0,6.4654134)"
     style="fill:#58bdda;fill-opacity:1"><path
       id="path8190"
       d="m 61.23,334.97 c 33.74,0 61.192,-27.431 61.231,-61.163 l 49.512,-15.628 c 15.426,27.809 45.09,46.675 79.08,46.675 18.07,0 34.916,-5.334 49.052,-14.506 l 45.271,48.325 c -4.089,7.782 -6.416,16.628 -6.416,26.011 0,30.95 25.181,56.13 56.131,56.13 30.95,0 56.13,-25.18 56.13,-56.13 0,-30.95 -25.18,-56.13 -56.13,-56.13 -8.084,0 -15.766,1.731 -22.717,4.821 L 326.41,264.31 c 9.483,-14.294 15.017,-31.426 15.017,-49.828 0,-19.558 -6.248,-37.683 -16.849,-52.489 l 23.981,-24.606 c 7.213,3.379 15.252,5.279 23.728,5.279 30.95,0 56.13,-25.18 56.13,-56.13 0,-30.95 -25.18,-56.13 -56.13,-56.13 -30.95,0 -56.13,25.18 -56.13,56.13 0,8.989 2.136,17.484 5.908,25.024 l -24.704,25.348 c -13.553,-8.12 -29.394,-12.795 -46.309,-12.795 -49.831,0 -90.371,40.539 -90.371,90.37 0,2.812 0.136,5.593 0.389,8.34 l -49.783,15.714 C 100.193,222.807 81.898,212.504 61.229,212.504 27.468,212.503 0,239.972 0,273.735 0,307.5 27.468,334.97 61.23,334.97 Z"
       inkscape:connector-curvature="0"
       style="fill:#58bdda;fill-opacity:1" /><g
       id="g8192"
       style="fill:#58bdda;fill-opacity:1" /><g
       id="g8194"
       style="fill:#58bdda;fill-opacity:1" /><g
       id="g8196"
       style="fill:#58bdda;fill-opacity:1" /><g
       id="g8198"
       style="fill:#58bdda;fill-opacity:1" /><g
       id="g8200"
       style="fill:#58bdda;fill-opacity:1" /><g
       id="g8202"
       style="fill:#58bdda;fill-opacity:1" /><g
       id="g8204"
       style="fill:#58bdda;fill-opacity:1" /><g
       id="g8206"
       style="fill:#58bdda;fill-opacity:1" /><g
       id="g8208"
       style="fill:#58bdda;fill-opacity:1" /><g
       id="g8210"
       style="fill:#58bdda;fill-opacity:1" /><g
       id="g8212"
       style="fill:#58bdda;fill-opacity:1" /><g
       id="g8214"
       style="fill:#58bdda;fill-opacity:1" /><g
       id="g8216"
       style="fill:#58bdda;fill-opacity:1" /><g
       id="g8218"
       style="fill:#58bdda;fill-opacity:1" /><g
       id="g8220"
       style="fill:#58bdda;fill-opacity:1" /></g></svg>