<?xml version="1.0" encoding="UTF-8" standalone="no"?>
<!-- Generator: Adobe Illustrator 19.0.0, SVG Export Plug-In . SVG Version: 6.00 Build 0)  -->

<svg
   xmlns:dc="http://purl.org/dc/elements/1.1/"
   xmlns:cc="http://creativecommons.org/ns#"
   xmlns:rdf="http://www.w3.org/1999/02/22-rdf-syntax-ns#"
   xmlns:svg="http://www.w3.org/2000/svg"
   xmlns="http://www.w3.org/2000/svg"
   xmlns:sodipodi="http://sodipodi.sourceforge.net/DTD/sodipodi-0.dtd"
   xmlns:inkscape="http://www.inkscape.org/namespaces/inkscape"
   version="1.1"
   id="Capa_1"
   x="0px"
   y="0px"
   viewBox="0 0 100 100"
   xml:space="preserve"
   inkscape:version="0.91 r13725"
   sodipodi:docname="icon-proteomica.svg"
   width="100"
   height="100"><metadata
     id="metadata43"><rdf:RDF><cc:Work
         rdf:about=""><dc:format>image/svg+xml</dc:format><dc:type
           rdf:resource="http://purl.org/dc/dcmitype/StillImage" /><dc:title /></cc:Work></rdf:RDF></metadata><defs
     id="defs41" /><sodipodi:namedview
     pagecolor="#ffffff"
     bordercolor="#666666"
     borderopacity="1"
     objecttolerance="10"
     gridtolerance="10"
     guidetolerance="10"
     inkscape:pageopacity="0"
     inkscape:pageshadow="2"
     inkscape:window-width="1317"
     inkscape:window-height="744"
     id="namedview39"
     showgrid="false"
     inkscape:zoom="0.24439495"
     inkscape:cx="-78.731285"
     inkscape:cy="42.174422"
     inkscape:window-x="1489"
     inkscape:window-y="24"
     inkscape:window-maximized="1"
     inkscape:current-layer="Capa_1" /><g
     id="g9"
     transform="translate(0,-412)" /><g
     id="g11"
     transform="translate(0,-412)" /><g
     id="g13"
     transform="translate(0,-412)" /><g
     id="g15"
     transform="translate(0,-412)" /><g
     id="g17"
     transform="translate(0,-412)" /><g
     id="g19"
     transform="translate(0,-412)" /><g
     id="g21"
     transform="translate(0,-412)" /><g
     id="g23"
     transform="translate(0,-412)" /><g
     id="g25"
     transform="translate(0,-412)" /><g
     id="g27"
     transform="translate(0,-412)" /><g
     id="g29"
     transform="translate(0,-412)" /><g
     id="g31"
     transform="translate(0,-412)" /><g
     id="g33"
     transform="translate(0,-412)" /><g
     id="g35"
     transform="translate(0,-412)" /><g
     id="g37"
     transform="translate(0,-412)" /><g
     transform="matrix(1.25,0,0,-1.25,1640.758,1906.3914)"
     inkscape:label="ink_ext_XXXXXX"
     id="g8605"><g
       transform="scale(0.1,0.1)"
       id="g8607" /></g><path
     inkscape:connector-curvature="0"
     id="path8947-9"
     style="fill:#58bdda;fill-opacity:1;fill-rule:nonzero;stroke:none"
     d="m 79.753444,99.999901 0,0 c -7.359331,0 -13.723928,-5.961132 -13.723928,-13.715632 0,-3.982362 1.789318,-7.359331 4.173791,-9.949684 L 57.875372,58.438843 c -1.587487,0.794813 -3.582915,1.192285 -5.569849,1.192285 -0.994504,0 -1.987099,-0.197847 -2.979497,-0.397472 l -6.961858,15.511336 c 2.582024,2.184683 4.371407,5.174483 4.371407,8.749036 0,6.167046 -4.968637,11.14197 -10.935925,11.14197 -5.96732,0 -10.942047,-4.974924 -10.942047,-11.14197 0,-5.967288 4.974727,-10.935892 10.942047,-10.935892 0.595089,0 1.192318,0 1.987132,0.199823 l 6.762102,-15.710896 c -3.582882,-2.39076 -5.967289,-6.562378 -5.967289,-11.337545 0,-1.591635 0.397308,-2.981505 0.794813,-4.571131 L 25.254944,35.171098 c -2.38444,3.574553 -6.556058,6.167046 -11.331225,6.167046 C 6.364794,41.338144 0,35.171098 0,27.614183 0,19.857511 6.364794,13.690466 13.923719,13.690466 c 7.556915,0 13.721952,6.167045 13.721952,13.923717 0,0.79478 -0.197847,1.787178 -0.397472,2.584164 l 14.916245,6.364629 c 2.38444,-2.584164 6.160725,-4.577452 10.141079,-4.577452 0.99457,0 1.78935,0 2.781748,0.197848 l 2.987825,-7.556915 c -3.385133,-2.384407 -5.769573,-6.364795 -5.769573,-10.935893 0,-7.1596071 5.969297,-12.92717186 13.128937,-12.92717186 7.157402,0 13.120542,5.76756476 13.120542,12.92717186 0,7.359167 -5.96314,13.128904 -13.120542,13.128904 -0.794814,0 -1.597955,0 -2.392769,-0.199822 l -3.179253,7.756672 c 3.782638,2.382267 6.364629,6.556057 6.364629,11.333233 0,3.780597 -1.587421,7.159574 -4.177938,9.741598 l 12.729424,18.101656 c 1.589626,-0.59509 3.185541,-0.99457 4.974891,-0.99457 7.754532,0 13.921578,6.167045 13.921578,13.923717 C 93.675022,94.038867 87.507976,100 79.753444,100 l 0,0" /></svg>