<?xml version="1.0" encoding="UTF-8" standalone="no"?>
<!-- Generator: Adobe Illustrator 19.0.0, SVG Export Plug-In . SVG Version: 6.00 Build 0)  -->

<svg
   xmlns:dc="http://purl.org/dc/elements/1.1/"
   xmlns:cc="http://creativecommons.org/ns#"
   xmlns:rdf="http://www.w3.org/1999/02/22-rdf-syntax-ns#"
   xmlns:svg="http://www.w3.org/2000/svg"
   xmlns="http://www.w3.org/2000/svg"
   xmlns:sodipodi="http://sodipodi.sourceforge.net/DTD/sodipodi-0.dtd"
   xmlns:inkscape="http://www.inkscape.org/namespaces/inkscape"
   version="1.1"
   id="Capa_1"
   x="0px"
   y="0px"
   viewBox="0 0 100 100"
   xml:space="preserve"
   inkscape:version="0.91 r13725"
   sodipodi:docname="icon-genomica.svg"
   width="100"
   height="100"><metadata
     id="metadata43"><rdf:RDF><cc:Work
         rdf:about=""><dc:format>image/svg+xml</dc:format><dc:type
           rdf:resource="http://purl.org/dc/dcmitype/StillImage" /><dc:title /></cc:Work></rdf:RDF></metadata><defs
     id="defs41" /><sodipodi:namedview
     pagecolor="#ffffff"
     bordercolor="#666666"
     borderopacity="1"
     objecttolerance="10"
     gridtolerance="10"
     guidetolerance="10"
     inkscape:pageopacity="0"
     inkscape:pageshadow="2"
     inkscape:window-width="1317"
     inkscape:window-height="744"
     id="namedview39"
     showgrid="false"
     inkscape:zoom="3.9103191"
     inkscape:cx="34.816796"
     inkscape:cy="38.631052"
     inkscape:window-x="1489"
     inkscape:window-y="24"
     inkscape:window-maximized="1"
     inkscape:current-layer="g10494" /><g
     id="g9"
     transform="translate(0,-412)" /><g
     id="g11"
     transform="translate(0,-412)" /><g
     id="g13"
     transform="translate(0,-412)" /><g
     id="g15"
     transform="translate(0,-412)" /><g
     id="g17"
     transform="translate(0,-412)" /><g
     id="g19"
     transform="translate(0,-412)" /><g
     id="g21"
     transform="translate(0,-412)" /><g
     id="g23"
     transform="translate(0,-412)" /><g
     id="g25"
     transform="translate(0,-412)" /><g
     id="g27"
     transform="translate(0,-412)" /><g
     id="g29"
     transform="translate(0,-412)" /><g
     id="g31"
     transform="translate(0,-412)" /><g
     id="g33"
     transform="translate(0,-412)" /><g
     id="g35"
     transform="translate(0,-412)" /><g
     id="g37"
     transform="translate(0,-412)" /><g
     transform="matrix(1.25,0,0,-1.25,1640.758,1906.3914)"
     inkscape:label="ink_ext_XXXXXX"
     id="g8605"><g
       transform="scale(0.1,0.1)"
       id="g8607" /></g><g
     id="g10494"
     transform="matrix(0.15521755,0,0,0.15521755,232.38497,-295.5425)"><path
       style="fill:#58bdda;fill-opacity:1;fill-rule:nonzero;stroke:none"
       d="M 70.945312 0.94726562 C 70.771792 0.94850555 70.598968 0.96777481 70.427734 1.0058594 C 70.276164 1.1573051 67.992207 1.6147672 64.941406 3.4472656 C 64.482102 3.2909771 64.024937 3.1367188 63.414062 3.1367188 C 60.674193 3.1367188 58.232422 5.4277532 58.232422 8.3222656 L 58.384766 8.4726562 C 55.49179 11.523442 52.59162 15.641128 50.765625 21.128906 C 49.089431 22.044333 48.017578 23.720117 48.017578 25.699219 C 48.017578 26.770918 48.324088 27.83611 48.931641 28.75 C 48.324088 33.476995 48.177361 38.96488 48.931641 45.519531 L 49.546875 50.855469 C 50.156088 56.79937 49.851921 62.13508 49.236328 66.708984 C 48.785064 66.708984 48.480334 66.862226 48.175781 67.013672 L 33.539062 52.224609 C 33.692154 51.919933 33.691888 51.615223 33.841797 51.310547 C 37.040986 50.854425 41.616431 50.550781 45.125 50.550781 L 45.125 45.367188 C 40.398005 45.214081 35.976394 45.82438 32.011719 46.433594 C 31.097829 45.82438 30.031343 45.367188 28.814453 45.367188 C 26.530691 45.367188 24.694669 46.738003 23.935547 48.71875 C 19.358445 50.398142 15.553641 52.377141 12.349609 54.507812 L 11.740234 54.507812 C 8.9988286 54.507812 7.0135212 56.496448 6.7089844 58.931641 C 3.2004158 62.135672 1.3718566 64.723099 1.21875 65.029297 C 0.6127186 66.099475 0.76230783 67.320193 1.6777344 68.232422 C 1.8276435 68.385528 1.9831957 68.385539 2.1347656 68.537109 C 3.3579265 69.450875 5.0333648 68.992281 5.6425781 67.775391 C 5.9471305 67.469177 6.8610007 65.942724 8.6933594 63.810547 C 9.3025727 64.26819 9.911839 64.57121 10.519531 64.722656 L 36.433594 90.792969 C 36.433594 91.250612 36.591554 91.707042 36.738281 92.011719 C 34.605965 93.992465 33.081133 94.909393 32.929688 95.0625 C 31.706418 95.82482 31.254117 97.348878 32.011719 98.71875 C 32.168007 98.871841 32.32121 99.022675 32.472656 99.175781 C 33.236637 100.08955 34.606555 100.24676 35.671875 99.632812 C 35.824982 99.481243 37.808477 98.263025 40.398438 95.826172 C 40.854544 95.977742 41.159544 95.976562 41.617188 95.976562 C 44.516543 95.976562 46.800781 93.685944 46.800781 90.792969 C 46.800781 90.032185 46.646766 89.423289 46.34375 88.65625 C 48.627512 85.457061 50.610915 81.341332 52.287109 76.462891 C 53.963195 75.547464 55.1875 73.873741 55.1875 71.894531 C 55.1875 70.669725 54.878452 69.755979 54.267578 68.84375 C 55.187832 63.810557 55.492838 58.017542 54.878906 51.462891 C 54.878906 51.462891 54.572508 46.128906 54.425781 46.128906 C 53.657082 40.488145 53.508721 35.608032 53.964844 31.490234 L 68.90625 46.583984 C 65.853788 46.890182 60.37066 46.890182 56.708984 46.583984 L 59.146484 52.074219 C 63.720373 52.225789 67.838845 51.76937 71.494141 51.160156 C 72.412749 51.76937 73.477941 52.224609 74.544922 52.224609 C 76.830221 52.224609 78.663464 50.854606 79.425781 48.869141 C 84.608897 46.889931 88.573821 43.995058 91.466797 41.095703 C 91.619899 41.095703 91.771963 41.25 91.921875 41.25 C 94.822761 41.25 97.105469 38.963808 97.105469 36.064453 C 97.105469 35.456901 96.955542 35.001499 96.800781 34.390625 C 98.476985 31.795946 99.085938 29.96875 99.085938 29.96875 C 99.390481 28.447308 98.477001 27.074208 97.105469 26.769531 C 95.735467 26.464994 94.214701 27.379988 93.910156 28.75 C 93.910156 28.75 93.750263 29.663623 93.142578 31.035156 C 92.684933 30.88205 92.37952 30.880859 91.921875 30.880859 C 91.314191 30.880859 90.857262 31.033977 90.248047 31.185547 L 68.447266 9.2402344 C 68.598836 8.9308392 68.599609 8.6269266 68.599609 8.3222656 C 68.599609 8.0177133 68.598836 7.7127555 68.447266 7.4082031 C 70.12346 6.6458832 71.347683 6.3408989 71.652344 6.1894531 C 73.022216 5.8847766 73.935828 4.5129707 73.632812 3.1367188 C 73.36489 1.8040034 72.159959 0.93858617 70.945312 0.94726562 z M 62.349609 13.351562 C 62.807392 13.504654 63.111047 13.503906 63.414062 13.503906 C 63.873367 13.503906 64.176998 13.504654 64.634766 13.351562 L 86.892578 35.914062 L 86.892578 36.064453 C 86.892578 37.435986 87.349011 38.660469 88.111328 39.574219 C 85.82591 41.553444 82.932255 43.229093 79.119141 44.605469 C 78.358356 43.229093 76.985908 42.16362 75.306641 41.857422 L 58.232422 24.785156 C 58.080976 23.871266 57.775245 23.111166 57.166016 22.501953 C 58.537549 18.688708 60.370524 15.641704 62.349609 13.351562 z M 25 54.052734 C 26.065336 54.971343 27.289813 55.580078 28.814453 55.580078 L 28.964844 55.580078 L 44.820312 71.740234 L 44.820312 71.894531 C 44.820312 74.025187 46.191475 75.85293 48.017578 76.615234 C 46.647581 80.275373 44.973589 83.479162 43.291016 85.916016 C 42.988 85.762925 42.681505 85.761719 42.376953 85.761719 L 16.769531 59.845703 L 16.769531 59.693359 C 16.769531 59.237253 16.770586 58.77927 16.619141 58.474609 C 19.05601 56.95163 21.802363 55.27588 25 54.052734 z "
       id="path8977-7"
       transform="matrix(6.4425704,0,0,6.4425704,-1497.1565,1904.0534)" /></g></svg>