<?xml version="1.0" encoding="UTF-8" standalone="no"?>
<!-- Generator: Adobe Illustrator 19.0.0, SVG Export Plug-In . SVG Version: 6.00 Build 0)  -->

<svg
   xmlns:dc="http://purl.org/dc/elements/1.1/"
   xmlns:cc="http://creativecommons.org/ns#"
   xmlns:rdf="http://www.w3.org/1999/02/22-rdf-syntax-ns#"
   xmlns:svg="http://www.w3.org/2000/svg"
   xmlns="http://www.w3.org/2000/svg"
   xmlns:sodipodi="http://sodipodi.sourceforge.net/DTD/sodipodi-0.dtd"
   xmlns:inkscape="http://www.inkscape.org/namespaces/inkscape"
   version="1.1"
   id="Capa_1"
   x="0px"
   y="0px"
   viewBox="0 0 100 100"
   xml:space="preserve"
   inkscape:version="0.91 r13725"
   sodipodi:docname="icon-bioinformatica.svg"
   width="100"
   height="100"><metadata
     id="metadata43"><rdf:RDF><cc:Work
         rdf:about=""><dc:format>image/svg+xml</dc:format><dc:type
           rdf:resource="http://purl.org/dc/dcmitype/StillImage" /><dc:title /></cc:Work></rdf:RDF></metadata><defs
     id="defs41" /><sodipodi:namedview
     pagecolor="#ffffff"
     bordercolor="#666666"
     borderopacity="1"
     objecttolerance="10"
     gridtolerance="10"
     guidetolerance="10"
     inkscape:pageopacity="0"
     inkscape:pageshadow="2"
     inkscape:window-width="1317"
     inkscape:window-height="744"
     id="namedview39"
     showgrid="false"
     inkscape:zoom="2.7650131"
     inkscape:cx="-32.815483"
     inkscape:cy="-0.021993797"
     inkscape:window-x="1489"
     inkscape:window-y="24"
     inkscape:window-maximized="1"
     inkscape:current-layer="g10420" /><g
     id="g9"
     transform="translate(0,-412)" /><g
     id="g11"
     transform="translate(0,-412)" /><g
     id="g13"
     transform="translate(0,-412)" /><g
     id="g15"
     transform="translate(0,-412)" /><g
     id="g17"
     transform="translate(0,-412)" /><g
     id="g19"
     transform="translate(0,-412)" /><g
     id="g21"
     transform="translate(0,-412)" /><g
     id="g23"
     transform="translate(0,-412)" /><g
     id="g25"
     transform="translate(0,-412)" /><g
     id="g27"
     transform="translate(0,-412)" /><g
     id="g29"
     transform="translate(0,-412)" /><g
     id="g31"
     transform="translate(0,-412)" /><g
     id="g33"
     transform="translate(0,-412)" /><g
     id="g35"
     transform="translate(0,-412)" /><g
     id="g37"
     transform="translate(0,-412)" /><g
     transform="matrix(1.25,0,0,-1.25,1640.758,1906.3914)"
     inkscape:label="ink_ext_XXXXXX"
     id="g8605"><g
       transform="scale(0.1,0.1)"
       id="g8607" /></g><g
     id="g11018"
     transform="translate(1.8027559e-6,6.0245391e-7)"><g
       transform="matrix(0.25680073,0,0,0.25680073,352.78185,-54.708573)"
       id="g10449"><g
         id="g10420"
         transform="matrix(0.70945626,-0.70474947,0.70474947,0.70945626,-718.473,-543.07605)"><path
           style="fill:#58bdda;fill-opacity:1;fill-rule:nonzero;stroke:none"
           d="M 64.435547 20.455078 C 63.736174 20.490503 63.044866 20.850847 62.660156 21.451172 C 62.658952 21.62599 51.203632 40.343965 75.767578 59.443359 C 54.23488 77.686086 58.901787 97.331135 59.070312 98.210938 C 59.420521 99.264818 60.207007 99.881251 61.259766 99.880859 C 61.347489 99.969168 61.611495 99.882064 61.699219 99.794922 C 62.838781 99.536513 63.628352 98.400873 63.283203 97.173828 C 63.282459 96.999121 62.852157 95.327397 62.861328 92.701172 L 95.287109 92.808594 C 95.186308 95.525841 94.833363 97.103094 94.746094 97.365234 C 94.479721 98.503429 95.088018 99.644505 96.3125 99.998047 C 96.48751 99.999648 96.662079 99.999195 96.837891 100 C 97.888174 100.0039 98.681354 99.395508 98.947266 98.427734 C 99.124965 97.553075 103.92613 77.763252 82.601562 59.464844 C 107.29261 40.53004 95.960768 21.738698 95.873047 21.650391 C 95.2633 20.68436 93.95204 20.241925 92.896484 20.941406 C 91.931005 21.551409 91.663501 22.864111 92.273438 23.828125 C 92.185424 23.915555 92.967691 25.232318 93.574219 27.429688 L 64.917969 27.244141 C 65.539434 25.228688 66.243915 24.005294 66.332031 23.744141 C 66.948817 22.782376 66.689732 21.468469 65.638672 20.761719 C 65.277941 20.530658 64.85517 20.433823 64.435547 20.455078 z M 64.111328 32.763672 L 94.259766 32.863281 C 94.246882 35.842265 93.537729 39.345036 91.595703 43.019531 L 66.794922 43.025391 C 64.878197 39.163341 64.101017 35.740097 64.111328 32.763672 z M 70.542969 48.556641 L 87.894531 48.617188 C 85.610294 51.23717 82.884238 53.945482 79.193359 56.738281 C 75.522587 53.920503 72.638593 51.193767 70.542969 48.556641 z M 79.175781 62.171875 C 83.107795 65.601906 86.162122 69.030586 88.519531 72.28125 L 69.763672 72.216797 C 72.054939 68.895348 75.046531 65.575591 79.175781 62.171875 z M 91.742188 77.810547 C 93.481507 81.324304 94.349912 84.481802 94.865234 87.285156 L 63.316406 87.179688 C 63.851078 84.38052 64.740477 81.227756 66.416016 77.8125 L 91.742188 77.810547 z "
           id="path8935-0"
           transform="matrix(2.7626723,2.7443437,-2.7443437,2.7626723,-997.76716,74.619367)" /></g><path
         style="opacity:1;fill:#58bdda;fill-opacity:1;fill-rule:nonzero;stroke:none"
         d="m -1373.7572,313.23282 0,227.03025 112.7651,0 0,41.15459 -20.7606,0 0,13.29624 127.5806,0 0,-13.29624 -16.6159,0 0,-41.15459 13.5309,0 0,-33.07189 -181.9188,0 0,-151.85665 181.9188,0 0,-42.10171 -216.5001,0 z"
         id="rect10440"
         inkscape:connector-curvature="0" /></g></g></svg>