<?xml version="1.0" encoding="UTF-8" standalone="no"?>
<!-- Generator: Adobe Illustrator 19.0.0, SVG Export Plug-In . SVG Version: 6.00 Build 0)  -->

<svg
   xmlns:dc="http://purl.org/dc/elements/1.1/"
   xmlns:cc="http://creativecommons.org/ns#"
   xmlns:rdf="http://www.w3.org/1999/02/22-rdf-syntax-ns#"
   xmlns:svg="http://www.w3.org/2000/svg"
   xmlns="http://www.w3.org/2000/svg"
   xmlns:sodipodi="http://sodipodi.sourceforge.net/DTD/sodipodi-0.dtd"
   xmlns:inkscape="http://www.inkscape.org/namespaces/inkscape"
   version="1.1"
   id="Capa_1"
   x="0px"
   y="0px"
   viewBox="0 0 100 100"
   xml:space="preserve"
   inkscape:version="0.91 r13725"
   sodipodi:docname="icon-microscopia.svg"
   width="100"
   height="100"><metadata
     id="metadata43"><rdf:RDF><cc:Work
         rdf:about=""><dc:format>image/svg+xml</dc:format><dc:type
           rdf:resource="http://purl.org/dc/dcmitype/StillImage" /><dc:title /></cc:Work></rdf:RDF></metadata><defs
     id="defs41" /><sodipodi:namedview
     pagecolor="#ffffff"
     bordercolor="#666666"
     borderopacity="1"
     objecttolerance="10"
     gridtolerance="10"
     guidetolerance="10"
     inkscape:pageopacity="0"
     inkscape:pageshadow="2"
     inkscape:window-width="1317"
     inkscape:window-height="744"
     id="namedview39"
     showgrid="false"
     inkscape:zoom="1.3825066"
     inkscape:cx="-111.46282"
     inkscape:cy="-50.665261"
     inkscape:window-x="1489"
     inkscape:window-y="24"
     inkscape:window-maximized="1"
     inkscape:current-layer="Capa_1" /><g
     id="g9"
     transform="translate(0,-412)" /><g
     id="g11"
     transform="translate(0,-412)" /><g
     id="g13"
     transform="translate(0,-412)" /><g
     id="g15"
     transform="translate(0,-412)" /><g
     id="g17"
     transform="translate(0,-412)" /><g
     id="g19"
     transform="translate(0,-412)" /><g
     id="g21"
     transform="translate(0,-412)" /><g
     id="g23"
     transform="translate(0,-412)" /><g
     id="g25"
     transform="translate(0,-412)" /><g
     id="g27"
     transform="translate(0,-412)" /><g
     id="g29"
     transform="translate(0,-412)" /><g
     id="g31"
     transform="translate(0,-412)" /><g
     id="g33"
     transform="translate(0,-412)" /><g
     id="g35"
     transform="translate(0,-412)" /><g
     id="g37"
     transform="translate(0,-412)" /><g
     transform="matrix(1.25,0,0,-1.25,1640.758,1906.3914)"
     inkscape:label="ink_ext_XXXXXX"
     id="g8605"><g
       transform="scale(0.1,0.1)"
       id="g8607" /></g><g
     id="g8370"
     transform="matrix(0.34102666,0,0,0.34102666,0.68396418,2.2365229)"
     style="fill:#58bdda;fill-opacity:1"><g
       id="g8328"
       style="fill:#58bdda;fill-opacity:1"><path
         id="path8330"
         d="m 182.95,243.791 c 9.665,0 17.5,-7.835 17.5,-17.5 0,-9.665 -7.835,-17.5 -17.5,-17.5 l -124.902,0 c -9.665,0 -17.5,7.835 -17.5,17.5 0,9.665 7.835,17.5 17.5,17.5 l 124.902,0 z"
         inkscape:connector-curvature="0"
         style="fill:#58bdda;fill-opacity:1" /><path
         id="path8332"
         d="m 276.721,22.675 -54.673,0 c 0.188,-2.52 0.285,-5.063 0.285,-7.629 0,-6.903 -5.597,-12.5 -12.5,-12.5 l -138.078,0 c 0.006,0.17 0.024,0.338 0.023,0.51 -0.071,17.827 5.785,34.575 16.937,48.434 4.327,5.378 3.476,13.247 -1.903,17.575 C 81.43,73.393 73.563,72.539 69.237,67.162 54.661,49.047 46.685,26.245 46.778,2.956 46.779,2.817 46.796,2.684 46.801,2.546 l -15.635,0 c -6.903,0 -12.5,5.597 -12.5,12.5 0,22.06 7.054,42.501 19.019,59.193 L 23.566,88.358 21.388,86.181 c -0.798,-0.798 -1.88,-1.246 -3.009,-1.246 -1.129,0 -2.211,0.448 -3.009,1.246 L 2.565,98.988 c -1.662,1.662 -1.662,4.355 0,6.018 l 34.994,34.995 c 0.798,0.798 1.88,1.246 3.009,1.246 1.129,0 2.211,-0.448 3.009,-1.246 l 12.807,-12.807 c 1.662,-1.662 1.662,-4.355 0,-6.018 l -2.177,-2.178 15.636,-15.636 c 8.906,5.128 18.66,8.94 28.99,11.188 l 0,29.206 -3.079,0 c -2.35,0 -4.255,1.905 -4.255,4.255 l 0,18.111 c 0,2.35 1.905,4.255 4.255,4.255 l 49.49,0 c 2.35,0 4.255,-1.905 4.255,-4.255 l 0,-18.111 c 0,-2.35 -1.905,-4.255 -4.255,-4.255 l -3.078,0 0,-29.207 c 10.33,-2.247 20.084,-6.06 28.989,-11.188 l 15.637,15.636 -2.177,2.178 c -1.662,1.662 -1.662,4.355 0,6.018 L 197.422,140 c 0.798,0.798 1.88,1.246 3.009,1.246 1.129,0 2.211,-0.448 3.009,-1.246 l 34.994,-34.995 c 1.662,-1.662 1.662,-4.355 0,-6.018 L 225.628,86.18 c -0.798,-0.798 -1.881,-1.246 -3.009,-1.246 -1.129,0 -2.211,0.448 -3.009,1.246 l -2.178,2.177 -14.119,-14.119 c 5.778,-8.061 10.414,-16.994 13.659,-26.564 l 47.248,0 0,214 -251.72,0 c -6.903,0 -12.5,5.597 -12.5,12.5 0,6.903 5.597,12.5 12.5,12.5 l 264.221,0 c 6.903,0 12.5,-5.597 12.5,-12.5 l 0,-239 c 0,-6.902 -5.597,-12.499 -12.5,-12.499 z"
         inkscape:connector-curvature="0"
         style="fill:#58bdda;fill-opacity:1" /></g><g
       id="g8334"
       style="fill:#58bdda;fill-opacity:1" /><g
       id="g8336"
       style="fill:#58bdda;fill-opacity:1" /><g
       id="g8338"
       style="fill:#58bdda;fill-opacity:1" /><g
       id="g8340"
       style="fill:#58bdda;fill-opacity:1" /><g
       id="g8342"
       style="fill:#58bdda;fill-opacity:1" /><g
       id="g8344"
       style="fill:#58bdda;fill-opacity:1" /><g
       id="g8346"
       style="fill:#58bdda;fill-opacity:1" /><g
       id="g8348"
       style="fill:#58bdda;fill-opacity:1" /><g
       id="g8350"
       style="fill:#58bdda;fill-opacity:1" /><g
       id="g8352"
       style="fill:#58bdda;fill-opacity:1" /><g
       id="g8354"
       style="fill:#58bdda;fill-opacity:1" /><g
       id="g8356"
       style="fill:#58bdda;fill-opacity:1" /><g
       id="g8358"
       style="fill:#58bdda;fill-opacity:1" /><g
       id="g8360"
       style="fill:#58bdda;fill-opacity:1" /><g
       id="g8362"
       style="fill:#58bdda;fill-opacity:1" /></g></svg>