<?xml version="1.0" encoding="utf-8"?>
<!-- Generator: Adobe Illustrator 16.0.0, SVG Export Plug-In . SVG Version: 6.00 Build 0)  -->
<!DOCTYPE svg PUBLIC "-//W3C//DTD SVG 1.1//EN" "http://www.w3.org/Graphics/SVG/1.1/DTD/svg11.dtd">
<svg version="1.1" id="Camada_1" xmlns="http://www.w3.org/2000/svg" xmlns:xlink="http://www.w3.org/1999/xlink" x="0px" y="0px"
	 width="992.125px" height="538.583px" viewBox="0 0 992.125 538.583" enable-background="new 0 0 992.125 538.583"
	 xml:space="preserve">
<g>
	<path fill-rule="evenodd" clip-rule="evenodd" fill="#FFFFFF" d="M756.975,141.722L756.975,141.722
		c0.062,0.131,0.101,0.263,0.172,0.389c0.362,0.623,0.865,1.111,1.436,1.48l16.099,109.468L657.824,105.336L756.975,141.722
		L756.975,141.722z M958.775,31.374L764.607,142.859l27.613,120.379L958.775,31.374L958.775,31.374L958.775,31.374z
		 M759.235,135.893L950.667,30.36L662.263,96.054L759.235,135.893L759.235,135.893L759.235,135.893z M969.732,23.358
		c-0.308-1.425-1.704-2.339-3.126-2.038L643.779,89.095c-2.063,0.159-3.953,1.48-4.72,3.551c-0.777,2.131-0.146,4.436,1.43,5.883
		c0.598,0.565,1.319,0.966,2.096,1.217l0.825,0.301l136.64,187.804c0.256,0.552,0.569,1.083,0.943,1.576
		c0.027,0.032,0.04,0.059,0.064,0.085c0.069,0.09,0.138,0.178,0.208,0.261c2.027,2.546,5.4,3.863,8.787,3.088
		c3.003-0.689,5.279-2.852,6.26-5.547L968.709,26.028c0.801-0.597,1.241-1.625,1.021-2.669L969.732,23.358z"/>
	<path fill-rule="evenodd" clip-rule="evenodd" fill="#FFFFFF" d="M979.601,23.897c0-6.869-5.56-12.435-12.434-12.435
		c-6.866,0-12.43,5.566-12.43,12.435c0.001,6.865,5.563,12.43,12.43,12.43C974.042,36.326,979.599,30.763,979.601,23.897z"/>
	<path fill-rule="evenodd" clip-rule="evenodd" fill="#FFFFFF" d="M779.248,139.922c0-10.104-8.179-18.289-18.287-18.289
		c-10.092,0-18.282,8.186-18.282,18.29c0.001,10.096,8.19,18.284,18.282,18.284C771.07,158.207,779.248,150.02,779.248,139.922z"/>
	<path fill-rule="evenodd" clip-rule="evenodd" fill="#FFFFFF" d="M665.593,94.56c0-11.767-9.539-21.312-21.314-21.312
		c-11.764,0-21.31,9.545-21.31,21.312c0.001,11.769,9.545,21.314,21.31,21.314C656.056,115.873,665.592,106.329,665.593,94.56z"/>
	<path fill-rule="evenodd" clip-rule="evenodd" fill="#FFFFFF" d="M815.114,284.014c0-14.956-12.125-27.08-27.079-27.08
		c-14.943,0-27.074,12.124-27.074,27.081c0.001,14.949,12.131,27.074,27.074,27.074
		C802.989,311.089,815.113,298.964,815.114,284.014z"/>
	<path fill-rule="evenodd" clip-rule="evenodd" fill="#FFFFFF" d="M670.195,304.994L670.195,304.994
		c0,28.32-10.468,43.708-28.932,43.708c-11.392,0-18.161-4.615-23.083-8.926l0.001-63.09c3.075-4,11.689-13.537,25.235-13.537
		C660.957,263.148,670.195,278.228,670.195,304.994L670.195,304.994z M719.737,305.312L719.737,305.312
		c0-50.78-23.08-79.09-61.243-79.09c-20.313,0-32.924,9.233-41.242,19.384l0.001-15.694h-45.851v216.542h46.779v-71.902
		c5.231,4.003,16.311,9.846,33.849,9.846c39.388,0,67.705-31.392,67.705-79.085H719.737L719.737,305.312z M453.843,287.153
		L453.843,287.153c2.773-18.467,11.387-28.004,26.775-28.004c16.317,0,22.465,12.307,22.773,28.004H453.843L453.843,287.153z
		 M454.765,317.926L454.765,317.926h93.25c5.236-58.162-17.85-91.705-66.781-91.705c-42.461,0-76.629,29.853-76.629,78.465
		c0,48.937,29.849,79.71,81.243,79.71c32.005,0,47.083-8.613,57.546-14.459l-14.461-29.234c-7.691,3.692-18.152,9.533-38.462,9.533
		C468.31,350.237,457.229,338.236,454.765,317.926L454.765,317.926L454.765,317.926z M383.682,380.705L383.682,380.705V275.765
		c0-28-12.307-49.543-45.553-49.543c-24.613,0-39.082,12.613-47.386,22.16l0-18.469h-45.853v150.792h46.776v-99.397
		c3.077-4.005,13.534-16.315,27.088-16.315c13.224,0,18.152,6.464,18.152,20.313l0.001,95.399H383.682L383.682,380.705z
		 M214.908,380.705L214.908,380.705V229.912h-47.396v150.792H214.908L214.908,380.705z M137.325,216.37L137.325,216.37v-40.62
		H16.076v204.955h49.849v-81.245h63.096v-37.853H65.925V216.37H137.325L137.325,216.37z M191.221,202.821
		c-14.947,0-27.071-12.121-27.071-27.081c0-14.95,12.124-27.071,27.071-27.071c14.953,0,27.077,12.122,27.077,27.071
		C218.297,190.7,206.173,202.822,191.221,202.821L191.221,202.821z"/>
	<polygon fill-rule="evenodd" clip-rule="evenodd" fill="#FFFFFF" points="16.076,411.874 35.472,411.874 35.472,417.806 
		23.237,417.806 23.237,426.141 34,426.141 34,431.766 23.237,431.766 23.237,445.931 16.076,445.931 	"/>
	<rect x="42.271" y="411.874" fill-rule="evenodd" clip-rule="evenodd" fill="#FFFFFF" width="7.157" height="34.058"/>
	<path fill-rule="evenodd" clip-rule="evenodd" fill="#FFFFFF" d="M58.361,411.874h7.211l12.186,17.643
		c2.029,2.915,3.251,5.166,3.555,5.728h0.102c-0.052-0.46-0.203-2.762-0.203-5.367l0-18.003h6.498v34.058h-6.551l-13.147-18.918
		c-1.831-2.558-2.847-4.45-3.255-5.116h-0.099c0.05,0.461,0.201,2.403,0.201,4.55v19.484h-6.498V411.874z"/>
	<path fill-rule="evenodd" clip-rule="evenodd" fill="#FFFFFF" d="M113.543,433.76l-2.894-8.131
		c-1.065-2.915-1.523-5.113-1.826-5.881h-0.102c-0.254,0.82-0.813,3.119-1.779,5.882l-2.892,8.13H113.543L113.543,433.76z
		 M105.521,411.874h6.907l13.253,34.058h-7.823l-2.283-6.392h-13.507l-2.234,6.392h-7.209L105.521,411.874z"/>
	<path fill-rule="evenodd" clip-rule="evenodd" fill="#FFFFFF" d="M130.543,411.874h7.212l12.184,17.643
		c2.032,2.915,3.251,5.166,3.554,5.728h0.103c-0.05-0.46-0.205-2.762-0.205-5.367l0-18.003h6.499v34.058h-6.548l-13.149-18.918
		c-1.829-2.558-2.846-4.45-3.252-5.116h-0.102c0.053,0.461,0.204,2.403,0.204,4.55l0,19.484h-6.5V411.874z"/>
	<path fill-rule="evenodd" clip-rule="evenodd" fill="#FFFFFF" d="M166.227,428.853c0-9.256,6.043-17.593,17.467-17.593
		c4.42,0,7.518,0.971,10.156,2.712l-3.197,5.265c-1.878-1.227-3.96-1.994-7.061-1.994c-6.345,0-9.746,5.116-9.746,11.404
		c0.001,6.494,3.248,11.864,9.848,11.864c3.657-0.001,5.893-1.277,7.671-2.608l2.942,5.064c-1.727,1.584-5.789,3.581-10.715,3.581
		C172.067,446.548,166.227,438.109,166.227,428.853z"/>
	<rect x="199.938" y="411.874" fill-rule="evenodd" clip-rule="evenodd" fill="#FFFFFF" width="7.155" height="34.058"/>
	<path fill-rule="evenodd" clip-rule="evenodd" fill="#FFFFFF" d="M233.543,433.76l-2.895-8.131
		c-1.065-2.915-1.522-5.113-1.826-5.881h-0.101c-0.253,0.82-0.813,3.119-1.779,5.882l-2.892,8.13H233.543L233.543,433.76z
		 M225.521,411.874h6.906l13.251,34.058h-7.821l-2.286-6.392h-13.504l-2.234,6.392h-7.21L225.521,411.874z"/>
	<path fill-rule="evenodd" clip-rule="evenodd" fill="#FFFFFF" d="M261.103,440.153c7.619,0,11.477-3.938,11.477-11.506
		c0-7.622-3.707-10.994-11.734-10.994h-3.093v22.5H261.103L261.103,440.153z M250.591,411.874h10.206
		c13.304,0,19.35,6.753,19.35,16.567c0,9.822-6.148,17.491-19.599,17.491l-9.957-0.001V411.874z"/>
	<path fill-rule="evenodd" clip-rule="evenodd" fill="#FFFFFF" d="M311.719,428.955c0-6.343-2.947-11.866-9.702-11.866
		c-6.804,0-10,5.32-10,11.663c0,6.39,3.094,11.966,9.848,11.966C308.671,440.716,311.718,435.297,311.719,428.955L311.719,428.955z
		 M284.399,428.955c0-9.255,6.148-17.694,17.467-17.694c11.324,0,17.416,8.337,17.416,17.491c0,9.253-5.938,17.797-17.264,17.797
		C290.694,446.548,284.398,438.162,284.399,428.955z"/>
	<path fill-rule="evenodd" clip-rule="evenodd" fill="#FFFFFF" d="M336.74,426.807c3.808,0,5.584-1.739,5.584-4.706
		c0-3.119-1.776-4.704-5.888-4.704h-3.604v9.41H336.74L336.74,426.807z M325.671,411.874h11.271c7.92,0,12.491,3.425,12.491,9.819
		c0,5.573-3.756,8.387-7.868,9.154l0,0.103c0.909,0.665,2.131,1.993,3.957,4.857l6.604,10.124h-7.875l-6.194-9.717
		c-2.641-3.937-3.198-4.294-4.775-4.294h-0.452v14.011h-7.161V411.874z"/>
	<path fill-rule="evenodd" clip-rule="evenodd" fill="#FFFFFF" d="M374.608,433.76l-2.892-8.131
		c-1.068-2.915-1.528-5.113-1.827-5.881h-0.101c-0.256,0.82-0.815,3.119-1.782,5.882l-2.891,8.13H374.608L374.608,433.76z
		 M366.587,411.874h6.907l13.252,34.058h-7.823l-2.285-6.392h-13.502l-2.234,6.392h-7.211L366.587,411.874z"/>
	<path fill-rule="evenodd" clip-rule="evenodd" fill="#FFFFFF" d="M26.587,506.469c7.617,0,11.475-3.938,11.475-11.505
		c0.001-7.622-3.705-10.995-11.729-10.995h-3.097v22.5H26.587L26.587,506.469z M16.076,478.188h10.206
		c13.306,0,19.348,6.755,19.348,16.572c0,9.817-6.144,17.486-19.599,17.486l-9.955-0.001V478.188z"/>
	<polygon fill-rule="evenodd" clip-rule="evenodd" fill="#FFFFFF" points="51.916,478.188 71.413,478.188 71.413,484.124 
		58.971,484.124 58.971,491.792 69.94,491.792 69.94,497.416 58.971,497.416 58.971,506.316 71.768,506.316 71.768,512.246 
		51.916,512.246 	"/>
	<rect x="88.971" y="478.188" fill-rule="evenodd" clip-rule="evenodd" fill="#FFFFFF" width="7.16" height="34.058"/>
	<path fill-rule="evenodd" clip-rule="evenodd" fill="#FFFFFF" d="M105.06,478.188h7.211l12.186,17.645
		c2.033,2.916,3.252,5.164,3.557,5.728h0.1c-0.05-0.462-0.201-2.762-0.201-5.369v-18.003h6.5v34.058h-6.552l-13.152-18.918
		c-1.826-2.557-2.845-4.448-3.252-5.113l-0.1-0.001c0.052,0.462,0.201,2.404,0.201,4.548l0.001,19.484h-6.499V478.188z"/>
	<path fill-rule="evenodd" clip-rule="evenodd" fill="#FFFFFF" d="M168.065,495.27c0-6.342-2.947-11.864-9.702-11.864
		c-6.802,0-10.002,5.319-10.002,11.66c0.001,6.393,3.099,11.968,9.852,11.968C165.017,507.034,168.064,501.612,168.065,495.27
		L168.065,495.27z M140.745,495.27c0-9.254,6.146-17.693,17.468-17.693c11.324,0,17.417,8.337,17.417,17.489
		c0,9.256-5.942,17.797-17.266,17.797C147.042,512.863,140.745,504.475,140.745,495.27z"/>
	<path fill-rule="evenodd" clip-rule="evenodd" fill="#FFFFFF" d="M177.193,478.188h7.718l7.108,20.406
		c0.915,2.605,1.575,5.063,1.727,5.678h0.102c0.204-0.616,0.912-3.124,1.726-5.678l6.854-20.406h7.209l-12.593,34.058h-6.801
		L177.193,478.188z"/>
	<path fill-rule="evenodd" clip-rule="evenodd" fill="#FFFFFF" d="M228.417,500.076l-2.896-8.129
		c-1.063-2.916-1.521-5.114-1.826-5.881h-0.101c-0.254,0.819-0.813,3.119-1.777,5.881l-2.896,8.129H228.417L228.417,500.076z
		 M220.396,478.188h6.904l13.254,34.058h-7.821l-2.284-6.392H216.94l-2.234,6.392H207.5L220.396,478.188z"/>
	<path fill-rule="evenodd" clip-rule="evenodd" fill="#FFFFFF" d="M251.711,523.243l0.865-3.066c0.509,0.253,1.42,0.559,2.591,0.559
		c1.471,0,2.437-0.559,2.437-1.738c0-1.736-1.879-2.047-3.607-1.944l1.679-4.548c-9.04-1.586-13.609-9.153-13.609-17.337
		c0-9.254,6.042-17.591,17.468-17.591c4.417,0,7.512,0.972,10.153,2.713l-3.196,5.262c-1.883-1.225-3.966-1.992-7.059-1.992
		c-6.347,0-9.75,5.116-9.75,11.405c0,6.494,3.252,11.86,9.853,11.86c3.654,0,5.888-1.276,7.665-2.605l2.946,5.062
		c-1.725,1.587-5.787,3.582-10.713,3.582h-0.051l-0.763,2.194c2.082,0.465,3.609,1.945,3.609,4.198c0,2.811-2.591,4.755-6.353,4.755
		C253.741,524.01,252.373,523.546,251.711,523.243z"/>
	<path fill-rule="evenodd" clip-rule="evenodd" fill="#FFFFFF" d="M293.188,500.076l-2.897-8.129
		c-1.063-2.916-1.521-5.114-1.826-5.881h-0.102c-0.256,0.819-0.81,3.119-1.776,5.881l-2.896,8.129H293.188L293.188,500.076z
		 M285.42,473.534c-1.22,0-2.235,1.023-2.744,1.538l-3.098-2.713c0.966-1.688,2.996-3.834,5.741-3.834c3.094,0,3.908,1.79,5.99,1.79
		c1.419,0,2.387-1.022,2.844-1.587l3.097,2.71c-1.014,1.74-3.047,3.887-5.839,3.887C288.363,475.325,287.501,473.534,285.42,473.534
		L285.42,473.534z M285.166,478.188h6.907l13.253,34.058h-7.823l-2.285-6.392H281.71l-2.233,6.392h-7.207L285.166,478.188z"/>
	<path fill-rule="evenodd" clip-rule="evenodd" fill="#FFFFFF" d="M334.155,495.27c0-6.342-2.944-11.864-9.697-11.864
		c-6.804,0-10.007,5.319-10.007,11.66c0,6.393,3.1,11.968,9.853,11.968C331.109,507.034,334.155,501.612,334.155,495.27
		L334.155,495.27z M306.837,495.27c0-9.254,6.144-17.693,17.467-17.693c11.326,0,17.417,8.337,17.417,17.489
		c0,9.256-5.939,17.797-17.264,17.797C313.136,512.863,306.837,504.475,306.837,495.27z"/>
	<polygon fill-rule="evenodd" clip-rule="evenodd" fill="#FFFFFF" points="357.954,478.188 377.453,478.188 377.453,484.124 
		365.014,484.124 365.014,491.792 375.982,491.792 375.982,497.416 365.014,497.416 365.014,506.316 377.809,506.316 
		377.809,512.246 357.954,512.246 	"/>
	<path fill-rule="evenodd" clip-rule="evenodd" fill="#FFFFFF" d="M405.014,494.653c4.52,0,6.447-1.839,6.447-5.622
		c0-3.427-1.878-5.319-6.295-5.319h-3.354v10.941H405.014L405.014,494.653z M394.605,478.188h11.12
		c7.361,0,12.948,3.427,12.948,10.741c0,7.413-5.334,11.197-13.761,11.197h-3.1v12.119h-7.207V478.188z"/>
	<polygon fill-rule="evenodd" clip-rule="evenodd" fill="#FFFFFF" points="424.706,478.188 444.203,478.188 444.203,484.124 
		431.767,484.124 431.767,491.792 442.733,491.792 442.733,497.416 431.767,497.416 431.767,506.316 444.561,506.316 
		444.561,512.246 424.706,512.246 	"/>
	<path fill-rule="evenodd" clip-rule="evenodd" fill="#FFFFFF" d="M449.224,509.485l3.043-5.01c0.763,0.564,3.354,2.559,7.262,2.559
		c3.401,0,5.381-1.741,5.381-3.941c0-3.017-3.605-3.887-7.565-5.881c-4.161-2.044-7.261-4.651-7.261-10.175
		c0-5.829,4.876-9.46,10.917-9.46c5.538,0,8.479,1.791,9.905,2.863l-2.896,5.062c-1.166-0.767-3.705-2.096-6.602-2.096
		c-2.742,0-4.519,1.228-4.519,3.529c0,2.659,2.693,3.526,6.246,5.163c4.467,2.046,8.683,4.347,8.683,10.637
		c0,6.191-4.621,10.128-12.134,10.128C454.196,512.863,450.695,510.713,449.224,509.485z"/>
	<path fill-rule="evenodd" clip-rule="evenodd" fill="#FFFFFF" d="M503.342,495.27c0-6.342-2.947-11.864-9.7-11.864
		c-6.802,0-10.002,5.319-10.002,11.66c0,6.393,3.098,11.968,9.853,11.968C500.293,507.034,503.341,501.612,503.342,495.27
		L503.342,495.27z M490.141,512.45c-9.038-1.431-14.115-8.945-14.115-17.18c0-9.254,6.144-17.693,17.467-17.693
		c11.32,0,17.418,8.337,17.418,17.489c0.001,7.822-4.271,15.238-12.496,17.23c1.931,2.56,3.659,3.531,6.601,3.531
		c1.932-0.001,3.354-0.819,4.063-1.378l2.286,4.753c-1.015,0.819-3.35,1.994-6.653,1.994
		C499.484,521.197,495.269,519.305,490.141,512.45z"/>
	<path fill-rule="evenodd" clip-rule="evenodd" fill="#FFFFFF" d="M516.688,499.054v-20.866h7.154v20.251
		c0,5.833,2.082,8.493,7.416,8.493c5.023-0.001,7.109-3.072,7.109-8.032v-20.712h6.598v20.198c0,9.308-4.617,14.477-13.858,14.477
		C521.304,512.863,516.687,507.953,516.688,499.054z"/>
	<rect x="553.487" y="478.188" fill-rule="evenodd" clip-rule="evenodd" fill="#FFFFFF" width="7.162" height="34.058"/>
	<path fill-rule="evenodd" clip-rule="evenodd" fill="#FFFFFF" d="M566.989,509.485l3.045-5.01c0.765,0.564,3.352,2.559,7.262,2.559
		c3.405,0,5.384-1.741,5.384-3.941c0.001-3.017-3.607-3.887-7.566-5.881c-4.163-2.044-7.262-4.651-7.262-10.175
		c0-5.829,4.874-9.46,10.915-9.46c5.539,0,8.484,1.791,9.906,2.863l-2.897,5.062c-1.164-0.767-3.706-2.096-6.601-2.096
		c-2.736,0-4.52,1.228-4.52,3.529c0.001,2.659,2.691,3.526,6.243,5.163c4.471,2.046,8.683,4.347,8.683,10.637
		c0,6.191-4.615,10.128-12.133,10.128C571.967,512.863,568.459,510.713,566.989,509.485z"/>
	<path fill-rule="evenodd" clip-rule="evenodd" fill="#FFFFFF" d="M612.781,500.076l-2.895-8.129
		c-1.065-2.916-1.523-5.114-1.829-5.881h-0.102c-0.253,0.819-0.81,3.119-1.776,5.881l-2.893,8.129H612.781L612.781,500.076z
		 M604.761,478.188h6.906l13.252,34.058h-7.82l-2.286-6.392h-13.508l-2.235,6.392h-7.207L604.761,478.188z"/>
</g>
</svg>
