<?xml version="1.0" encoding="utf-8"?>
<!-- Generator: Adobe Illustrator 16.0.0, SVG Export Plug-In . SVG Version: 6.00 Build 0)  -->
<!DOCTYPE svg PUBLIC "-//W3C//DTD SVG 1.1//EN" "http://www.w3.org/Graphics/SVG/1.1/DTD/svg11.dtd">
<svg version="1.1"
	 id="Layer_1" xmlns:sodipodi="http://sodipodi.sourceforge.net/DTD/sodipodi-0.dtd" xmlns:rdf="http://www.w3.org/1999/02/22-rdf-syntax-ns#" xmlns:svg="http://www.w3.org/2000/svg" xmlns:dc="http://purl.org/dc/elements/1.1/" xmlns:inkscape="http://www.inkscape.org/namespaces/inkscape" xmlns:cc="http://creativecommons.org/ns#" sodipodi:docname="logo_plataformas.svg" inkscape:version="0.91 r13725"
	 xmlns="http://www.w3.org/2000/svg" xmlns:xlink="http://www.w3.org/1999/xlink" x="0px" y="0px" width="300px" height="110px"
	 viewBox="0 0 300 110" enable-background="new 0 0 300 110" xml:space="preserve">
<g>
	<g id="g2470_3_" transform="matrix(0.41517674,0,0,0.42341131,-12.090579,-58.686605)">
		<path id="path2472_3_" inkscape:connector-curvature="0" fill="#47DEF9" d="M154.876,238.541
			c-0.372-6.683-5.956-11.846-12.799-11.65c-6.739,0.173-12.405,5.555-13.019,12.149c-0.022,0.263-0.054,0.525-0.061,0.791
			c-0.012,0.264,0.007,0.52,0.019,0.789c0.208,6.708,5.68,12.027,12.577,11.953c7.006-0.069,12.81-5.609,13.273-12.456
			c0.015-0.262,0.041-0.513,0.046-0.777C154.91,239.072,154.888,238.804,154.876,238.541z"/>
		<path id="path2474_3_" inkscape:connector-curvature="0" fill="#143655" d="M283.511,226.006
			c-1.388-5.005-4.076-10.317-6.064-11.952c-2.123-1.751-2.774,0.991-1.48,6.234c-0.747-0.417-1.522-0.834-2.326-1.241
			c-1.522-5.343-5.175-10.726-8.51-12.51c-0.49-1.536-0.99-3.044-1.515-4.531c3.267,1.489,4.222-0.928,2.199-5.41
			c-1.988-4.39-6.281-9.523-9.737-11.585c-3.691-2.206-5.283-0.36-3.386,4.312c1.944,4.785,6.537,10.265,10.277,12.353
			c0.522,1.496,1.024,3.015,1.515,4.563c-3.486-1.394-5.349,1.764-4.207,7.42c-1.302-0.427-2.631-0.843-4.009-1.255
			c-1.516-5.84-6.379-11.495-11.335-13.149c-0.47-1.822-0.961-3.607-1.469-5.353c4.833,1.248,7.164-1.529,5.308-6.283
			c-1.808-4.617-7.14-9.723-12.021-11.504c-4.994-1.823-7.999,0.302-6.801,4.818c-1.897-0.514-3.828-1.011-5.792-1.483
			c-1.637-4.682-7.552-9.297-13.612-10.494c-6.264-1.239-10.791,1.489-10.267,6.148c-2.325-0.301-4.68-0.579-7.063-0.822
			c-1.028-4.74-7.179-8.836-14.058-9.251c-7.177-0.427-13.006,3.253-12.949,8.214c0.068,5.261,6.177,9.89,13.712,10.525
			c0.125,2.046,0.245,4.14,0.359,6.284c-7.411-0.009-13.358,4.906-13.699,11.38c-2.866-0.015-5.736-0.008-8.602,0.029
			c-0.287-6.437-6.147-11.282-13.493-11.229c0.16-2.551,0.327-5.036,0.505-7.451c6.664-0.647,12.123-4.803,12.272-9.478
			c0.14-4.307-4.67-7.466-10.794-7.293c0.214-2.017,0.439-3.938,0.668-5.766c5.875-0.588,10.714-3.26,10.872-6.15
			c0.147-2.673-4.303-4.524-9.892-4.079c-5.536,0.452-10.591,3.011-11.282,5.705c-0.742,2.876,3.273,4.883,9.032,4.62
			c-0.249,1.822-0.486,3.748-0.72,5.759c-5.878,0.633-11.006,4.198-11.949,8.292c-3.394,0.367-6.738,0.793-10.032,1.278
			c0.501-4.042-3.292-6.38-8.676-5.268c-5.415,1.12-10.759,5.415-11.997,9.648c-1.268,4.336,2.032,7.151,7.461,6.458
			c-0.508,2.429-0.988,4.936-1.449,7.517c-6.186,1.282-11.839,6.802-13.144,12.851c-2.265,0.397-4.481,0.814-6.64,1.249
			c0.84-5.991-2.519-9.574-7.614-8.085c-4.935,1.431-9.947,7.348-11.282,13.285c-1.335,5.97,1.422,10.167,6.205,9.5
			c-0.394,2.537-0.748,5.105-1.069,7.706c-4.695,1.077-8.849,6.772-9.633,13.167c-1.725,0.233-3.386,0.475-4.981,0.716
			c0.392-6.298-1.924-10.569-5.291-9.619c-3.138,0.88-6.193,6.458-6.792,12.457c-0.588,5.893,1.354,10.517,4.319,10.568
			c-0.111,2.59-0.174,5.185-0.198,7.783c-2.859,0.34-4.984,4.93-4.868,10.62c-1.25-0.129-2.432-0.27-3.526-0.406
			c-0.318-4.763-1.657-8.567-3.137-8.567c-1.338,0-2.296,3.719-2.063,8.276c0.227,4.387,1.483,8.289,2.785,8.958
			c0.315,3.151,0.706,6.264,1.19,9.336c-1.275-0.42-1.635,2.431-0.754,6.541c0.869,4.045,2.673,8.114,4.108,9.355
			c0.761,2.844,1.595,5.641,2.506,8.363c-1.308-0.983-1.291,0.888,0.066,4.246c1.356,3.388,3.646,7.27,5.15,8.753
			c1.561,1.504,1.804,0.069,0.553-3.284c1.405,1.084,2.938,2.14,4.599,3.188c1.431,3.496,4.299,7.256,6.752,8.81
			c1.123,2.629,2.299,5.139,3.527,7.533c-2.333-1.333-2.858-0.217-1.182,2.514c1.669,2.726,4.998,6.218,7.527,7.902
			c2.65,1.748,3.593,0.983,1.984-1.818c-1.598-2.823-5.029-6.435-7.7-8.215c-1.236-2.399-2.416-4.927-3.539-7.57
			c2.411,1.199,3.461-0.475,2.373-3.976c2.37,1.079,4.895,2.117,7.549,3.123c1.412,3.727,5.063,7.565,8.615,8.986
			c1.035,2.915,2.125,5.678,3.265,8.299c-3.384-1.126-4.848,0.18-3.347,2.994c1.49,2.772,5.484,6.154,9.004,7.583
			c3.494,1.453,5.437,0.526,4.415-2.048c3.226,1.089,6.572,2.099,10.033,3.026c1.338,2.726,5.611,5.623,9.884,6.596
			c4.543,1.047,7.636-0.415,6.826-3.252c-0.875-3.049-5.624-6.389-10.508-7.399c-4.553-0.946-7.3,0.581-6.469,3.358
			c-3.479-0.925-6.847-1.923-10.09-3.012c-1.497-2.795-5.312-6.015-8.862-7.514c-1.13-2.62-2.19-5.415-3.212-8.308
			c3.708,1.052,5.885-1.149,4.771-5.187c-1.164-4.248-5.324-8.663-9.358-10.063c-0.896-3.589-1.714-7.332-2.469-11.202
			c3.96,0.627,6.585-2.8,5.842-8.008c-0.792-5.589-5.026-10.734-9.376-11.431c-4.093-0.632-6.665,3.146-5.785,8.393
			c0.833,4.913,4.5,9.59,8.344,10.817c0.756,3.833,1.588,7.565,2.499,11.158c-3.498-0.789-5.328,1.495-4.335,5.236
			c-2.659-0.978-5.197-2.002-7.562-3.063c-1.523-3.995-4.856-8.22-7.546-9.521c-2.511-1.195-3.406,0.793-2.204,4.368
			c-1.644-1.02-3.193-2.057-4.589-3.118c-1.402-3.45-3.595-7.141-5.097-8.58c-0.916-2.745-1.755-5.558-2.524-8.441
			c1.377,0.77,1.856-1.649,1.096-5.729c1.287,0.655,2.711,1.301,4.219,1.928c1.062,4.631,3.912,9.106,6.534,10.206
			c2.952,1.204,4.614-1.995,3.666-7.214c-0.936-5.12-3.941-9.929-6.811-11.02c-0.428-3.003-0.789-6.043-1.095-9.115
			c3.187,0.272,5.538-4.267,5.445-10.48c1.644,0.122,3.36,0.247,5.144,0.364c0.509,6.684,4.675,12.42,9.519,12.953
			c5.231,0.579,9.37-4.712,9.411-11.92c2.492,0.109,5.052,0.212,7.682,0.311c0.548,7.141,5.78,13.17,12.142,13.915
			c0.175,3.245,0.38,6.451,0.617,9.627c-6.439-0.161-10.872,5.026-10.023,11.795c0.849,6.746,6.813,12.902,13.352,13.788
			c6.824,0.925,11.99-4.041,11.409-11.115c-0.581-7.113-6.546-13.433-13.376-14.362c-0.233-3.185-0.435-6.4-0.609-9.657
			c6.659-0.005,11.948-5.727,12.168-13.239c3.286,0.069,6.62,0.134,10.003,0.189c0.534,7.791,7.008,14.129,14.829,14.272
			c8.223,0.171,14.941-6.481,14.914-14.812c-0.018-8.409-6.859-15.282-15.187-15.264c-7.913,0-14.272,6.315-14.58,14.175
			c-3.386-0.051-6.719-0.104-10.012-0.171c-0.514-7.597-6.09-13.692-12.831-14.077c0.014-3.245,0.054-6.483,0.127-9.717
			c6.92-0.577,12.765-6.902,13.437-14.558c3.245-0.136,6.52-0.242,9.8-0.346c0.18,7.579,6.335,13.615,14.118,13.542
			c7.922-0.075,14.478-6.355,14.935-14.107c3.834-0.023,7.662-0.03,11.499-0.018c0.441,7.721,6.974,13.979,14.896,14.029
			c7.796,0.054,13.988-5.969,14.181-13.54c3.628,0.106,7.246,0.218,10.836,0.368c0.662,7.439,6.578,13.549,13.455,13.737
			c6.812,0.179,11.944-5.75,11.503-13.159c-0.434-7.275-6.188-13.616-12.863-14.159c-6.724-0.563-12.063,4.784-12.156,12.033
			c-3.554-0.148-7.166-0.272-10.82-0.383c-0.609-7.164-6.573-13.043-13.821-13.601c-0.086-3.174-0.18-6.287-0.282-9.343
			c8.01-0.118,13.958-5.78,13.398-12.85c-0.531-6.703-6.99-12.411-14.575-13.096c-0.127-2.138-0.261-4.225-0.399-6.284
			c7.16,0.092,12.338-3.649,11.989-8.605c2.395,0.246,4.761,0.52,7.099,0.821c1.262,5.187,7.645,10.258,14.452,11.359
			c6.54,1.067,10.666-2.122,9.546-7.04c1.97,0.468,3.894,0.964,5.797,1.47c1.77,4.857,7.114,9.975,12.256,11.765
			c0.506,1.752,0.996,3.533,1.465,5.351c-5.345-1.204-8.842,2.779-7.705,9.244c1.19,6.78,6.732,13.255,12.424,14.644
			c0.313,2.155,0.612,4.33,0.882,6.546c-5.619-0.517-9.772,5.004-9.263,12.692c0.542,8.086,5.917,14.941,11.909,15.192
			c5.519,0.231,9.473-5.662,8.849-13.071c-0.602-7.064-5.23-13.479-10.478-14.653c-0.272-2.197-0.572-4.365-0.89-6.517
			c4.983,0.64,7.923-3.516,6.846-9.491c1.372,0.397,2.701,0.805,3.994,1.219c1.604,6.234,5.866,12.24,9.651,13.446
			c3.412,1.075,4.984-2.606,3.714-8.167c0.816,0.408,1.583,0.823,2.338,1.245c1.556,5.545,4.396,10.974,6.466,12.162
			c1.866,1.066,2.23-2.318,0.811-7.452l0,0h0.007v-0.003H283.511z M253.452,189.673c-1.712-4.214-0.315-5.9,3.011-3.928
			c3.119,1.869,7.032,6.509,8.816,10.494c1.811,4.032,0.943,6.172-1.994,4.834c-0.092-0.044-0.166-0.055-0.261-0.099
			c-0.126-0.062-0.256-0.161-0.387-0.235C259.287,198.836,255.202,193.939,253.452,189.673L253.452,189.673z M76.921,355.534
			c1.41,2.447,0.604,3.141-1.698,1.61c-2.212-1.458-5.13-4.527-6.586-6.91c-1.435-2.359-0.989-3.312,1.004-2.191
			c0.099,0.062,0.178,0.092,0.283,0.155c0.107,0.069,0.227,0.161,0.341,0.235C72.575,349.983,75.528,353.101,76.921,355.534z
			 M114.715,364.864c4.214,0.881,8.313,3.764,9.09,6.398c0.736,2.47-1.929,3.727-5.897,2.841c-3.681-0.853-7.381-3.321-8.563-5.683
			c-0.06-0.115-0.14-0.235-0.187-0.351c-0.047-0.129-0.054-0.235-0.083-0.346C108.403,365.346,110.801,364.047,114.715,364.864z
			 M96.974,364.1c0.068,0.127,0.155,0.254,0.213,0.371c0.054,0.115,0.072,0.212,0.113,0.318c0.842,2.205-0.813,2.98-3.825,1.748
			c-3.066-1.255-6.553-4.198-7.848-6.619c-1.284-2.417-0.014-3.533,2.872-2.588c0.141,0.046,0.268,0.074,0.42,0.134
			c0.161,0.065,0.325,0.143,0.489,0.217C92.439,358.973,95.665,361.72,96.974,364.1z M70.359,311.295
			c-0.768-4.571,1.489-7.849,5.061-7.277c3.762,0.607,7.422,5.09,8.116,9.913c0.656,4.495-1.589,7.482-4.989,7
			c-0.167-0.023-0.32-0.014-0.489-0.053c-0.166-0.042-0.326-0.125-0.492-0.177C74.234,319.612,71.079,315.562,70.359,311.295z
			 M89.508,343.098c0.967,3.453-0.855,5.36-4.01,4.518c-0.158-0.048-0.307-0.06-0.474-0.12c-0.16-0.055-0.319-0.138-0.479-0.203
			c-3.025-1.243-6.112-4.479-7.334-7.657c-0.06-0.168-0.145-0.334-0.199-0.503c-0.054-0.166-0.071-0.318-0.111-0.482
			c-0.807-3.162,0.747-5.063,3.702-4.431c0.153,0.035,0.294,0.037,0.459,0.083c0.166,0.051,0.333,0.134,0.499,0.194
			C84.985,335.748,88.499,339.493,89.508,343.098z M67.644,334.88c0.067,0.164,0.147,0.328,0.205,0.498
			c0.055,0.155,0.082,0.291,0.128,0.441c0.909,2.954,0.029,4.38-2.01,3.402c-0.105-0.058-0.194-0.076-0.307-0.136
			c-0.102-0.058-0.209-0.15-0.318-0.217c-2.086-1.359-4.509-4.527-5.757-7.51c-0.058-0.15-0.133-0.298-0.189-0.45
			c-0.062-0.168-0.095-0.309-0.147-0.468c-1-3.047-0.203-4.728,1.951-3.667C63.496,327.887,66.311,331.481,67.644,334.88z
			 M53.652,326.633c0.061,0.152,0.135,0.309,0.193,0.461c0.055,0.138,0.088,0.256,0.139,0.378c1.063,2.876,0.856,4.122-0.482,2.832
			c-1.321-1.282-3.327-4.684-4.513-7.657c-1.163-2.92-1.193-4.521-0.078-3.706c0.051,0.039,0.088,0.053,0.145,0.095
			c0.062,0.06,0.136,0.143,0.205,0.212C50.554,320.509,52.43,323.669,53.652,326.633z M180.575,182.731
			c-0.245-0.015-0.485-0.044-0.728-0.06c-6.701-0.6-12.146-4.72-12.236-9.406c-0.087-4.479,5.143-7.81,11.626-7.422
			c6.19,0.376,11.676,4.047,12.605,8.31c0.033,0.148,0.1,0.296,0.126,0.452c0.023,0.166,0.023,0.33,0.033,0.496
			c0.249,4.396-4.366,7.706-10.713,7.646C181.049,182.735,180.816,182.74,180.575,182.731z M181.624,225.371
			c-7.344,0.212-13.236,5.891-13.621,13.151c-3.847-0.018-7.679-0.014-11.488,0.011c-0.38-7.551-6.68-13.382-14.392-13.165
			c-7.589,0.21-13.969,6.298-14.615,13.732c-3.294,0.106-6.56,0.233-9.791,0.376c-0.061-7.449-5.289-12.953-12.016-12.745
			c0.226-2.8,0.48-5.558,0.753-8.28c6.807-1.063,12.873-7.018,13.92-13.656c2.686-0.257,5.389-0.496,8.121-0.709
			c-0.194,6.923,5.896,12.306,13.94,12.022c8.19-0.294,15.009-6.237,15.52-13.313c2.866-0.03,5.748-0.037,8.636-0.02
			c0.452,6.886,6.868,12.667,14.769,13.245C181.458,219.091,181.545,222.203,181.624,225.371z M195.344,238.961
			c0.024,0.254,0.053,0.514,0.058,0.777c0.008,0.263-0.006,0.524-0.019,0.785c-0.228,6.618-5.664,11.869-12.496,11.81
			c-6.929-0.046-12.644-5.494-13.093-12.236c-0.015-0.258-0.041-0.514-0.042-0.782c0-0.265,0.021-0.528,0.034-0.791
			c0.372-6.317,5.491-11.253,11.878-11.495c0.266-0.01,0.532-0.03,0.801-0.021c0.267,0.009,0.529,0.035,0.796,0.06
			C189.589,227.609,194.778,232.715,195.344,238.961z M153.552,239.381c-0.003,0.235-0.026,0.466-0.04,0.699
			c-0.418,6.13-5.612,11.088-11.884,11.149c-6.172,0.067-11.071-4.698-11.258-10.702c-0.009-0.238-0.026-0.468-0.019-0.706
			c0.007-0.239,0.035-0.472,0.061-0.706c0.547-5.904,5.617-10.726,11.653-10.879c6.126-0.175,11.125,4.447,11.457,10.432
			C153.534,238.905,153.552,239.141,153.552,239.381z M114.387,240.384c-0.013,0.274-0.081,0.535-0.108,0.8
			c-0.604,5.638-4.876,10.269-9.98,10.831c-0.235,0.023-0.465,0.091-0.702,0.099c-0.234,0.005-0.448-0.045-0.675-0.055
			c-4.87-0.231-8.484-4.401-8.497-9.784c0-0.251-0.034-0.488-0.024-0.74c0.015-0.251,0.079-0.489,0.115-0.74
			c0.649-5.342,4.716-9.865,9.556-10.621c0.226-0.037,0.443-0.111,0.674-0.128c0.236-0.017,0.459,0.017,0.687,0.017
			c4.984-0.021,8.804,4.047,8.922,9.553C114.354,239.877,114.394,240.119,114.387,240.384z M98.203,206.376
			c1.035-4.509,5.194-8.594,9.811-9.597c0.22-0.047,0.428-0.125,0.647-0.16c0.221-0.03,0.426-0.015,0.646-0.03
			c4.688-0.407,8.069,2.664,7.88,7.232c-0.012,0.217,0.014,0.407-0.007,0.632c-0.027,0.22-0.102,0.437-0.146,0.66
			c-0.894,4.855-5.276,9.161-10.246,10.051c-0.227,0.038-0.447,0.118-0.68,0.143c-0.226,0.028-0.428,0-0.649,0.007
			c-4.695,0.217-7.849-3.079-7.452-7.677c0.022-0.217,0-0.414,0.036-0.632C98.077,206.789,98.157,206.585,98.203,206.376z
			 M154.83,202.159c-0.006,0.227-0.073,0.451-0.092,0.676c-0.535,5.495-5.822,10.073-12.184,10.313
			c-6.285,0.232-11.028-3.907-11.014-9.293c0-0.224-0.046-0.438-0.027-0.669c0.018-0.217,0.092-0.422,0.121-0.646
			c0.762-4.961,5.543-9.117,11.207-9.725c0.247-0.021,0.488-0.09,0.741-0.1c0.255-0.014,0.49,0.028,0.742,0.03
			c5.698,0.032,10.172,3.773,10.444,8.762C154.78,201.724,154.836,201.933,154.83,202.159z M193.541,203.032
			c0.42,5.645-4.324,10.141-10.695,10.311c-0.258,0.006-0.52,0.017-0.782,0.013c-0.268-0.009-0.527-0.037-0.788-0.062
			c-6.225-0.544-11.287-5.074-11.756-10.495c-0.019-0.226-0.051-0.452-0.051-0.68c-0.002-0.224,0.056-0.434,0.067-0.653
			c0.307-5.147,4.97-9.018,10.866-9.094c0.25,0,0.49-0.043,0.747-0.032c0.253,0.009,0.494,0.074,0.741,0.101
			C187.997,193.043,193.153,197.621,193.541,203.032L193.541,203.032L193.541,203.032z M134.729,174.679
			c0.025-0.16,0.096-0.309,0.133-0.468c0.833-3.485,5.157-6.509,10.165-7.068c0.222-0.029,0.44-0.077,0.666-0.098
			c0.226-0.01,0.44,0.007,0.663,0c5.236-0.121,9.305,2.604,9.163,6.308c-0.166,3.966-4.792,7.465-10.434,8.061
			c-0.241,0.022-0.474,0.075-0.72,0.092c-0.243,0.014-0.467-0.01-0.702-0.01c-5.295,0.067-9.103-2.652-8.929-6.329
			C134.738,175.002,134.706,174.845,134.729,174.679L134.729,174.679z M138.005,155.577c0.582-2.399,5.083-4.691,10.018-5.079
			c4.976-0.399,8.911,1.25,8.75,3.642c-0.175,2.528-4.408,4.869-9.551,5.409c-0.22,0.018-0.427,0.062-0.648,0.076
			c-0.218,0.016-0.409,0.007-0.617,0.016C140.915,159.856,137.384,158.098,138.005,155.577z M114.227,171.29
			c4.694-0.958,7.989,1.076,7.567,4.582c-0.019,0.151,0,0.284-0.033,0.438c-0.035,0.165-0.12,0.33-0.167,0.496
			c-1.055,3.693-5.429,7.273-10.181,8.354c-0.214,0.047-0.427,0.122-0.647,0.159c-0.203,0.037-0.385,0.035-0.586,0.061
			c-4.69,0.587-7.563-1.852-6.48-5.616C104.763,176.049,109.462,172.269,114.227,171.29z M111.192,186.284
			c5.522-1.204,10.615-5.383,11.782-9.673c3.297-0.475,6.651-0.895,10.048-1.256c-0.293,4.373,4.24,7.632,10.532,7.514
			c-0.19,2.41-0.372,4.894-0.542,7.447c-7.268,0.702-13.493,6.082-14.408,12.464c-2.731,0.21-5.423,0.45-8.089,0.713
			c0.333-6.218-4.354-10.381-10.728-9.696C110.233,191.222,110.7,188.711,111.192,186.284z M71.774,212.746
			c1.002-4.599,4.889-9.159,8.703-10.235c3.846-1.077,6.338,1.626,5.745,6.118c-0.021,0.19-0.021,0.374-0.056,0.572
			c-0.039,0.217-0.119,0.422-0.172,0.632c-1.108,4.567-4.763,8.804-8.537,9.904c-0.174,0.053-0.345,0.134-0.521,0.171
			c-0.158,0.037-0.302,0.02-0.459,0.045C72.866,220.404,70.773,217.283,71.774,212.746z M77.02,222.624
			c5.108-1.325,10.093-7.096,11.471-13.277c2.162-0.423,4.374-0.833,6.637-1.22c-0.707,6.256,3.594,10.84,9.993,10.47
			c-0.281,2.711-0.537,5.463-0.773,8.25c-6.454,0.933-11.936,7.053-12.718,14.172c-2.458,0.187-4.858,0.385-7.199,0.589
			c0.211-6.849-3.486-11.698-8.482-11.236C76.273,227.752,76.63,225.169,77.02,222.624z M67.091,244.118
			c0.018-0.226,0.073-0.445,0.105-0.676c0.649-4.914,3.803-9.218,7.408-10.085c0.163-0.045,0.325-0.119,0.49-0.143
			c0.179-0.022,0.338,0.007,0.508-0.006c3.767-0.231,6.519,3.443,6.412,8.612c-0.007,0.235,0.016,0.459,0,0.699
			c-0.02,0.249-0.074,0.484-0.105,0.731c-0.672,5.54-4.328,10.155-8.411,10.409c-3.838,0.225-6.602-3.716-6.419-8.873
			C67.091,244.561,67.071,244.344,67.091,244.118z M49.565,246.964c0.441-4.5,2.724-8.633,5.07-9.235
			c2.425-0.604,4.072,2.477,3.827,6.975c-0.012,0.217-0.006,0.413-0.021,0.632c-0.022,0.217-0.066,0.424-0.094,0.639
			c-0.559,4.41-2.696,8.109-5.005,8.681c-0.111,0.032-0.215,0.095-0.332,0.106c-0.101,0.009-0.191-0.025-0.286-0.025
			C50.545,254.667,49.131,251.307,49.565,246.964z M57.634,278.371c0.028,4.398-1.616,7.609-3.869,7.565
			c-0.107-0.007-0.208,0.025-0.319,0.007c-0.109-0.014-0.207-0.069-0.314-0.106c-2.097-0.639-3.912-4.165-4.26-8.28
			c-0.021-0.198-0.048-0.397-0.06-0.604c-0.008-0.203,0.006-0.397,0.001-0.595c-0.039-4.11,1.477-7.369,3.542-7.648
			c0.102-0.014,0.199-0.062,0.306-0.055c0.115,0,0.222,0.052,0.332,0.067c2.284,0.361,4.234,3.919,4.588,8.37
			c0.014,0.212,0.051,0.424,0.06,0.641C57.652,277.949,57.634,278.152,57.634,278.371z M39.043,275.583
			c-0.207-4.018,0.635-7.269,1.815-7.246c1.283,0.037,2.434,3.315,2.731,7.43c0.013,0.194,0.034,0.374,0.046,0.572
			c0.008,0.194,0.004,0.369,0.011,0.563c0.106,3.87-0.674,6.684-1.858,6.606c-0.059-0.005-0.113,0.018-0.173,0.005
			c-0.048-0.018-0.098-0.069-0.142-0.092C40.319,282.82,39.225,279.418,39.043,275.583z M42.343,300.607
			c-0.743-3.46-0.447-5.847,0.608-5.547c0.054,0.018,0.102,0.009,0.16,0.035c0.058,0.032,0.121,0.102,0.185,0.148
			c1.224,0.867,2.721,4.147,3.541,7.694c0.045,0.175,0.092,0.351,0.127,0.53c0.036,0.171,0.053,0.328,0.086,0.496
			c0.614,3.383,0.232,5.415-0.909,4.809c-0.06-0.028-0.111-0.035-0.173-0.078c-0.052-0.037-0.108-0.111-0.166-0.152
			C44.589,307.464,43.058,304.034,42.343,300.607z M61.07,308.873c0.813,4.412-0.586,7.161-3.073,6.154
			c-2.225-0.89-4.637-4.673-5.558-8.608c-0.04-0.175-0.099-0.353-0.133-0.535c-0.039-0.191-0.051-0.362-0.08-0.549
			c-0.592-3.709,0.467-6.246,2.486-5.953c0.1,0.009,0.192,0,0.299,0.023c0.115,0.03,0.236,0.106,0.35,0.155
			C57.77,300.533,60.283,304.579,61.07,308.873z M54.519,297.932c-2.42-0.383-3.687,2.694-2.952,7.131
			c-1.517-0.614-2.934-1.239-4.228-1.882c-0.96-4.262-2.759-8.197-4.228-9.184c-0.49-3.104-0.893-6.25-1.211-9.424
			c1.382,0.157,2.283-3.109,2.151-7.611c1.089,0.148,2.273,0.295,3.522,0.443c0.42,5.678,2.959,10.633,5.858,11.458
			C53.732,291.919,54.09,294.943,54.519,297.932z M59.458,277.213c-0.441-6.299-3.206-11.327-6.439-11.643
			c0.021-2.595,0.086-5.192,0.189-7.777c3.26-0.602,6.287-5.856,7.02-12.086c1.596-0.235,3.258-0.465,4.982-0.685
			c-0.318,6.663,3.245,11.849,8.174,11.615c5.35-0.263,10.157-6.315,10.943-13.587c2.346-0.198,4.748-0.387,7.211-0.565
			c-0.105,7.219,4.763,12.925,11.301,13.135c-0.074,3.215-0.114,6.444-0.128,9.678c-6.4,0.42-11.347,6.227-11.477,13.421
			c-2.632-0.088-5.192-0.187-7.688-0.279c-0.521-7.3-5.058-13.099-10.328-13.068c-4.869,0.039-8.623,5.452-8.608,12.159
			C62.824,277.425,61.111,277.322,59.458,277.213z M113.891,280.119c0.005,0.272-0.046,0.526-0.056,0.798
			c-0.241,5.66-4.188,9.973-9.215,10.1c-0.234,0.002-0.455,0.048-0.694,0.037c-0.233-0.007-0.453-0.083-0.683-0.106
			c-4.85-0.627-8.804-5.157-9.295-10.619c-0.026-0.258-0.086-0.494-0.092-0.756c-0.007-0.263,0.039-0.507,0.046-0.766
			c0.181-5.48,3.918-9.838,8.789-10.213c0.232-0.01,0.448-0.074,0.682-0.074c0.241,0,0.469,0.062,0.702,0.083
			c5.084,0.413,9.249,4.991,9.724,10.713C113.823,279.586,113.883,279.847,113.891,280.119z M66.523,278.327
			c-0.008-0.228,0.019-0.452,0.02-0.687c0.055-5.125,2.926-9.199,6.666-9.182c3.976,0.018,7.374,4.405,7.839,9.878
			c0.021,0.249,0.069,0.487,0.079,0.74c0.007,0.247-0.025,0.482-0.026,0.727c-0.086,5.409-3.187,9.424-7.141,9.039
			c-3.727-0.36-6.9-4.703-7.361-9.832C66.578,278.784,66.531,278.562,66.523,278.327z M117.339,318.117
			c0.536,6.313-4.053,10.762-10.147,9.954c-5.866-0.761-11.199-6.283-11.95-12.339c-0.74-6.017,3.204-10.584,8.91-10.464
			c0.225,0.002,0.427-0.035,0.653-0.016c0.24,0.016,0.468,0.097,0.708,0.134C111.543,306.272,116.815,311.828,117.339,318.117z
			 M141.516,267.021c7.415,0,13.51,6.119,13.527,13.608c0.028,7.422-5.952,13.368-13.284,13.216
			c-6.959-0.12-12.724-5.727-13.233-12.648c-0.019-0.272-0.047-0.535-0.052-0.803c-0.006-0.281,0.019-0.549,0.031-0.826
			C128.82,272.593,134.489,267.021,141.516,267.021z M231.595,241.431c0.392,6.599-4.195,11.865-10.26,11.684
			c-6.064-0.187-11.275-5.549-11.917-12.104c-0.025-0.258-0.061-0.521-0.069-0.786c-0.014-0.261,0-0.514,0.005-0.768
			c0.12-6.396,4.829-11.094,10.776-10.63C226.084,229.302,231.207,234.947,231.595,241.431L231.595,241.431z M214.688,186.349
			c-6.057-0.989-11.726-5.501-12.907-10.125c-0.041-0.166-0.126-0.332-0.154-0.498c-0.033-0.161-0.007-0.295-0.025-0.45
			c-0.458-4.17,3.552-6.619,9.176-5.517c5.453,1.071,10.773,5.217,12.25,9.431c0.053,0.148,0.14,0.296,0.181,0.445
			c0.046,0.167,0.04,0.314,0.074,0.471C224.207,184.486,220.527,187.309,214.688,186.349z M231.297,182.129
			c-0.061-0.164-0.154-0.332-0.207-0.497c-0.042-0.144-0.051-0.269-0.088-0.406c-1.076-4.036,1.603-5.948,6.077-4.33
			c4.415,1.608,9.239,6.211,10.86,10.388c1.655,4.254-0.453,6.728-4.775,5.614c-0.146-0.043-0.274-0.046-0.432-0.095
			c-0.175-0.054-0.352-0.144-0.526-0.203C237.639,190.981,232.907,186.439,231.297,182.129z M237.502,208.44
			c-1.016-5.726,2.039-9.271,6.758-8.259c0.172,0.037,0.327,0.037,0.501,0.081c0.156,0.045,0.313,0.129,0.47,0.182
			c4.408,1.481,8.721,6.483,10.085,11.684c0.049,0.187,0.124,0.376,0.167,0.563c0.041,0.201,0.045,0.382,0.076,0.579
			c0.91,5.272-1.682,8.884-6.083,8.333c-0.161-0.023-0.304,0-0.474-0.035c-0.179-0.036-0.36-0.119-0.535-0.161
			C243.453,220.126,238.567,214.42,237.502,208.44z M260.173,244.099c0.553,6.699-3.026,11.998-8.007,11.748
			c-5.371-0.263-10.191-6.412-10.68-13.661c-0.466-6.875,3.219-11.854,8.23-11.451c0.18,0.016,0.36,0.018,0.54,0.051
			c0.165,0.023,0.321,0.099,0.488,0.138C255.467,231.995,259.628,237.72,260.173,244.099z M261.395,215.045
			c-0.054-0.197-0.122-0.386-0.166-0.581c-0.046-0.181-0.058-0.34-0.091-0.513c-1-4.989,0.614-7.797,3.679-6.617
			c0.12,0.044,0.224,0.047,0.348,0.106c0.099,0.047,0.2,0.129,0.294,0.182c2.986,1.596,6.231,6.373,7.594,11.138
			c0.053,0.166,0.114,0.334,0.155,0.499c0.046,0.179,0.063,0.333,0.1,0.513c1.115,4.938-0.308,8.173-3.359,7.184
			C266.604,225.854,262.845,220.547,261.395,215.045z M276.7,221.548c-0.054-0.18-0.12-0.36-0.161-0.542
			c-0.046-0.158-0.068-0.296-0.107-0.451c-1.162-4.691-0.574-7.175,1.317-5.622c1.796,1.462,4.234,6.284,5.492,10.824
			c1.292,4.652,0.955,7.691-0.75,6.691C280.647,231.352,278.101,226.508,276.7,221.548z"/>
	</g>
	<g id="g2484_3_" transform="matrix(0.32483133,0,0,0.44220749,10.405706,-65.229277)">
		<path id="path2486_3_" inkscape:connector-curvature="0" fill="#47DEF9" d="M319.705,393.381c-1.234,0-2.229-0.994-2.229-2.226
			V152.62c0-1.229,0.995-2.229,2.229-2.229c1.239,0,2.234,1.003,2.234,2.229v238.535
			C321.939,392.387,320.941,393.381,319.705,393.381z"/>
	</g>
	<g>
		<path fill="#143655" stroke="#143655" stroke-width="0.25" stroke-miterlimit="10" d="M126.492,23.038h0.327v-0.326v-6.087h2.236
			c0.627,0,1.145,0.216,1.586,0.655c0.439,0.439,0.652,0.957,0.652,1.583v3.849v0.326h0.327h1.283h0.327v-0.326v-3.849
			c0-1.146-0.411-2.139-1.226-2.951c-0.09-0.091-0.184-0.176-0.276-0.256c0.094-0.08,0.188-0.164,0.276-0.256
			c0.813-0.813,1.226-1.805,1.226-2.951V8.602c0-1.145-0.411-2.138-1.226-2.95c-0.812-0.813-1.805-1.225-2.95-1.225h-3.848h-0.328
			v0.328v17.957v0.326h0.328H126.492z M129.058,6.364c0.625,0,1.144,0.214,1.584,0.654c0.439,0.44,0.653,0.958,0.653,1.583v3.848
			c0,0.625-0.213,1.146-0.653,1.584s-0.959,0.653-1.584,0.653h-2.237V6.364H129.058z"/>
		<polygon fill="#143655" stroke="#143655" stroke-width="0.25" stroke-miterlimit="10" points="142.685,23.038 143.015,23.038 
			143.015,22.712 143.015,21.429 143.015,21.101 142.685,21.101 137.882,21.101 137.882,16.625 142.685,16.625 143.015,16.625 
			143.015,16.298 143.015,15.015 143.015,14.687 142.685,14.687 137.882,14.687 137.882,6.364 142.685,6.364 143.015,6.364 
			143.015,6.036 143.015,4.755 143.015,4.427 142.685,4.427 136.27,4.427 135.944,4.427 135.944,4.755 135.944,22.712 
			135.944,23.038 136.27,23.038 		"/>
		<path fill="#143655" stroke="#143655" stroke-width="0.25" stroke-miterlimit="10" d="M149.899,4.427h-3.85h-0.326v0.328v17.957
			v0.326h0.326h3.85c1.146,0,2.139-0.412,2.949-1.225c0.813-0.813,1.227-1.806,1.227-2.95V8.602c0-1.145-0.413-2.138-1.227-2.95
			C152.037,4.84,151.046,4.427,149.899,4.427z M147.662,6.364h2.237c0.625,0,1.143,0.214,1.582,0.654
			c0.439,0.44,0.656,0.958,0.656,1.583v10.262c0,0.624-0.217,1.143-0.656,1.582c-0.438,0.44-0.957,0.655-1.582,0.655h-2.237V6.364z"
			/>
		<polygon fill="#143655" stroke="#143655" stroke-width="0.25" stroke-miterlimit="10" points="163.523,23.038 163.852,23.038 
			163.852,22.712 163.852,21.429 163.852,21.101 163.523,21.101 158.725,21.101 158.725,16.625 163.523,16.625 163.852,16.625 
			163.852,16.298 163.852,15.015 163.852,14.687 163.523,14.687 158.725,14.687 158.725,6.364 163.523,6.364 163.852,6.364 
			163.852,6.036 163.852,4.755 163.852,4.427 163.523,4.427 157.114,4.427 156.786,4.427 156.786,4.755 156.786,22.712 
			156.786,23.038 157.114,23.038 		"/>
		<path fill="#143655" stroke="#143655" stroke-width="0.25" stroke-miterlimit="10" d="M178.766,18.863V8.602
			c0-1.145-0.412-2.139-1.227-2.95c-0.813-0.813-1.807-1.225-2.951-1.225h-3.847h-0.327v0.328v17.957v0.326h0.327h3.847
			c1.146,0,2.141-0.412,2.951-1.225S178.766,20.008,178.766,18.863z M172.352,6.364h2.236c0.626,0,1.145,0.214,1.583,0.654
			s0.655,0.958,0.655,1.583v10.262c0,0.626-0.217,1.144-0.655,1.582c-0.438,0.44-0.957,0.655-1.583,0.655h-2.236V6.364z"/>
		<polygon fill="#143655" stroke="#143655" stroke-width="0.25" stroke-miterlimit="10" points="188.217,23.038 188.545,23.038 
			188.545,22.712 188.545,21.429 188.545,21.101 188.217,21.101 183.413,21.101 183.413,16.625 188.217,16.625 188.545,16.625 
			188.545,16.298 188.545,15.015 188.545,14.687 188.217,14.687 183.413,14.687 183.413,6.364 188.217,6.364 188.545,6.364 
			188.545,6.036 188.545,4.755 188.545,4.427 188.217,4.427 181.805,4.427 181.477,4.427 181.477,4.755 181.477,22.712 
			181.477,23.038 181.805,23.038 		"/>
		<path fill="#143655" stroke="#143655" stroke-width="0.25" stroke-miterlimit="10" d="M126.399,48.444h0.328v-0.328v-5.627h2.055
			c1.072,0,1.998-0.386,2.758-1.144c0.76-0.761,1.145-1.688,1.145-2.758v-3.572c0-1.07-0.385-1.998-1.145-2.758
			c-0.76-0.759-1.686-1.144-2.758-1.144h-3.572h-0.328v0.326v16.676v0.328h0.328L126.399,48.444L126.399,48.444z M130.838,38.588
			c0,0.575-0.196,1.05-0.601,1.454c-0.405,0.403-0.881,0.601-1.455,0.601h-2.055v-7.685h2.055c0.572,0,1.05,0.197,1.455,0.603
			c0.404,0.405,0.601,0.88,0.601,1.455V38.588z"/>
		<polygon fill="#143655" stroke="#143655" stroke-width="0.25" stroke-miterlimit="10" points="141.587,48.444 141.914,48.444 
			141.914,48.116 141.914,46.926 141.914,46.598 141.587,46.598 137.149,46.598 137.149,31.44 137.149,31.114 136.822,31.114 
			135.631,31.114 135.304,31.114 135.304,31.44 135.304,48.116 135.304,48.444 135.631,48.444 		"/>
		<path fill="#143655" stroke="#143655" stroke-width="0.25" stroke-miterlimit="10" d="M148.435,31.114
			c-1.069,0-1.996,0.385-2.756,1.144c-0.761,0.759-1.145,1.688-1.145,2.758v13.101v0.328h0.327h1.19h0.328v-0.328V42.49h4.108v5.627
			v0.328h0.328h1.189h0.328v-0.328V31.44v-0.326h-0.328H148.435z M146.382,35.016c0-0.575,0.195-1.05,0.602-1.455
			c0.404-0.405,0.879-0.603,1.453-0.603h2.055v7.685h-4.108L146.382,35.016L146.382,35.016z"/>
		<polygon fill="#143655" stroke="#143655" stroke-width="0.25" stroke-miterlimit="10" points="157.34,32.958 157.34,48.116 
			157.34,48.444 157.666,48.444 158.855,48.444 159.185,48.444 159.185,48.116 159.185,32.958 161.239,32.958 161.566,32.958 
			161.566,32.632 161.566,31.44 161.566,31.114 161.239,31.114 155.283,31.114 154.956,31.114 154.956,31.44 154.956,32.632 
			154.956,32.958 155.283,32.958 		"/>
		<path fill="#143655" stroke="#143655" stroke-width="0.25" stroke-miterlimit="10" d="M162.995,48.116v0.328h0.328h1.19h0.327
			v-0.328v-5.627h4.107v5.627v0.328h0.327h1.19h0.327v-0.328V31.44v-0.326h-0.327h-3.571c-1.07,0-1.998,0.385-2.759,1.144
			c-0.759,0.759-1.145,1.688-1.145,2.758v13.1L162.995,48.116L162.995,48.116z M166.894,32.958h2.056v7.685h-4.107v-5.627
			c0-0.575,0.195-1.05,0.603-1.455C165.852,33.156,166.323,32.958,166.894,32.958z"/>
		<polygon fill="#143655" stroke="#143655" stroke-width="0.25" stroke-miterlimit="10" points="176.574,48.444 176.574,48.116 
			176.574,42.489 181.011,42.489 181.338,42.489 181.338,42.161 181.338,40.971 181.338,40.643 181.011,40.643 176.574,40.643 
			176.574,32.958 181.011,32.958 181.338,32.958 181.338,32.632 181.338,31.44 181.338,31.114 181.011,31.114 175.057,31.114 
			174.727,31.114 174.727,31.44 174.727,48.116 174.727,48.444 175.057,48.444 176.246,48.444 		"/>
		<path fill="#143655" stroke="#143655" stroke-width="0.25" stroke-miterlimit="10" d="M185.102,32.258
			c-0.758,0.76-1.145,1.688-1.145,2.758v9.527c0,1.07,0.387,1.998,1.145,2.758c0.758,0.758,1.688,1.144,2.756,1.144
			c1.07,0,1.998-0.386,2.758-1.144c0.76-0.761,1.146-1.688,1.146-2.758v-9.527c0-1.07-0.386-1.998-1.146-2.758
			c-0.76-0.759-1.688-1.144-2.758-1.144C186.789,31.114,185.859,31.499,185.102,32.258z M185.807,35.016
			c0-0.575,0.194-1.05,0.602-1.455c0.404-0.405,0.88-0.603,1.453-0.603c0.572,0,1.05,0.197,1.453,0.603
			c0.402,0.405,0.602,0.88,0.602,1.455v9.527c0,0.575-0.197,1.05-0.602,1.454c-0.403,0.405-0.879,0.601-1.453,0.601
			s-1.049-0.195-1.453-0.601c-0.405-0.404-0.602-0.879-0.602-1.454V35.016z"/>
		<path fill="#143655" stroke="#143655" stroke-width="0.25" stroke-miterlimit="10" d="M196.286,48.444h0.328v-0.328v-5.627h2.054
			c0.574,0,1.05,0.195,1.453,0.601c0.402,0.404,0.602,0.879,0.602,1.453v3.573v0.328h0.327h1.191h0.327v-0.328v-3.573
			c0-1.07-0.387-1.997-1.146-2.757c-0.075-0.076-0.155-0.152-0.235-0.221c0.08-0.069,0.16-0.143,0.235-0.22
			c0.761-0.761,1.146-1.688,1.146-2.758v-3.572c0-1.07-0.387-1.999-1.146-2.758c-0.758-0.759-1.687-1.144-2.756-1.144h-3.572h-0.327
			v0.326v16.676v0.328h0.327L196.286,48.444L196.286,48.444z M198.668,32.958c0.573,0,1.05,0.197,1.453,0.603
			c0.402,0.405,0.602,0.88,0.602,1.455v3.572c0,0.575-0.195,1.05-0.602,1.454c-0.403,0.403-0.879,0.601-1.453,0.601h-2.054v-7.685
			H198.668z"/>
		<path fill="#143655" stroke="#143655" stroke-width="0.25" stroke-miterlimit="10" d="M206.706,48.444h0.328v-0.328v-13.1
			c0-0.575,0.194-1.05,0.602-1.455c0.404-0.405,0.882-0.603,1.454-0.603c0.573,0,1.049,0.197,1.454,0.603
			c0.404,0.405,0.603,0.88,0.603,1.455v13.101v0.328h0.326h1.189h0.328v-0.328V35.016c0-0.575,0.193-1.05,0.603-1.455
			c0.403-0.405,0.88-0.603,1.453-0.603s1.049,0.197,1.453,0.603c0.403,0.405,0.603,0.88,0.603,1.455v13.101v0.328h0.328h1.189h0.327
			v-0.328V35.016c0-1.07-0.386-1.998-1.146-2.758c-0.761-0.759-1.688-1.144-2.757-1.144s-1.999,0.385-2.757,1.144
			c-0.079,0.076-0.152,0.157-0.221,0.239c-0.071-0.082-0.146-0.163-0.224-0.239c-0.76-0.759-1.687-1.144-2.757-1.144
			c-1.068,0-1.998,0.385-2.758,1.144c-0.76,0.759-1.145,1.688-1.145,2.758v13.101v0.328h0.328L206.706,48.444L206.706,48.444z"/>
		<path fill="#143655" stroke="#143655" stroke-width="0.25" stroke-miterlimit="10" d="M223.084,48.444h0.328v-0.328v-5.627h4.109
			v5.627v0.328h0.326h1.19h0.327v-0.328V31.44v-0.326h-0.327h-3.573c-1.07,0-1.996,0.385-2.758,1.144
			c-0.759,0.76-1.143,1.688-1.143,2.758v13.101v0.328h0.326L223.084,48.444L223.084,48.444z M225.467,32.959h2.057v7.684h-4.109
			v-5.627c0-0.575,0.195-1.05,0.602-1.455C224.418,33.155,224.893,32.959,225.467,32.959z"/>
		<path fill="#143655" stroke="#143655" stroke-width="0.25" stroke-miterlimit="10" d="M235.891,48.444
			c1.068,0,1.998-0.386,2.756-1.144c0.761-0.76,1.145-1.688,1.145-2.758v-1.19c0-1.398-1.021-2.773-3.121-4.201
			c-2.466-1.678-2.834-2.566-2.834-2.946v-1.189c0-0.575,0.197-1.05,0.602-1.455c0.403-0.405,0.881-0.602,1.453-0.602
			c0.574,0,1.049,0.196,1.453,0.602c0.405,0.405,0.604,0.88,0.604,1.455v1.189v0.328h0.325h1.19h0.327v-0.328v-1.189
			c0-1.07-0.384-1.998-1.145-2.758c-0.758-0.759-1.688-1.144-2.756-1.144c-1.07,0-1.998,0.385-2.759,1.144
			c-0.759,0.76-1.146,1.688-1.146,2.758v1.189c0,1.399,1.021,2.774,3.121,4.201c2.468,1.679,2.836,2.565,2.836,2.946v1.19
			c0,0.575-0.196,1.05-0.604,1.454c-0.404,0.405-0.879,0.601-1.453,0.601s-1.05-0.195-1.453-0.601
			c-0.402-0.404-0.602-0.879-0.602-1.454v-1.19v-0.328h-0.327h-1.19h-0.328v0.328v1.19c0,1.07,0.387,1.997,1.146,2.758
			C233.893,48.059,234.816,48.444,235.891,48.444z"/>
		<polygon fill="#143655" stroke="#143655" stroke-width="0.25" stroke-miterlimit="10" points="127.358,57.253 127.358,73.033 
			127.358,73.359 127.686,73.359 128.926,73.359 129.254,73.359 129.254,73.033 129.254,57.253 131.404,57.253 131.731,57.253 
			131.731,56.926 131.731,55.688 131.731,55.359 131.404,55.359 125.21,55.359 124.882,55.359 124.882,55.688 124.882,56.926 
			124.882,57.253 125.21,57.253 		"/>
		<polygon fill="#143655" stroke="#143655" stroke-width="0.25" stroke-miterlimit="10" points="140.923,73.359 141.249,73.359 
			141.249,73.033 141.249,71.792 141.249,71.464 140.923,71.464 136.293,71.464 136.293,67.164 140.923,67.164 141.249,67.164 
			141.249,66.837 141.249,65.6 141.249,65.271 140.923,65.271 136.293,65.271 136.293,57.253 140.923,57.253 141.249,57.253 
			141.249,56.926 141.249,55.688 141.249,55.359 140.923,55.359 134.726,55.359 134.399,55.359 134.399,55.688 134.399,73.033 
			134.399,73.359 134.726,73.359 		"/>
		<path fill="#143655" stroke="#143655" stroke-width="0.25" stroke-miterlimit="10" d="M147.961,55.359
			c-1.108,0-2.071,0.398-2.858,1.186s-1.186,1.749-1.186,2.859v9.91c0,1.108,0.398,2.072,1.186,2.856
			c0.789,0.786,1.75,1.188,2.858,1.188c1.109,0,2.071-0.4,2.857-1.188c0.787-0.788,1.187-1.748,1.187-2.856v-1.237v-0.328h-0.325
			h-1.241h-0.327v0.328v1.237c0,0.601-0.205,1.098-0.628,1.521c-0.422,0.425-0.922,0.627-1.521,0.627
			c-0.599,0-1.1-0.202-1.521-0.627c-0.422-0.425-0.629-0.921-0.629-1.521v-9.91c0-0.602,0.207-1.1,0.629-1.521
			c0.423-0.425,0.922-0.63,1.521-0.63c0.599,0,1.1,0.205,1.521,0.63c0.423,0.424,0.628,0.922,0.628,1.521v1.238v0.328h0.327h1.241
			h0.325v-0.328v-1.238c0-1.109-0.397-2.072-1.187-2.859C150.031,55.758,149.07,55.359,147.961,55.359z"/>
		<path fill="#143655" stroke="#143655" stroke-width="0.25" stroke-miterlimit="10" d="M160.866,59.404v13.629v0.326h0.327h1.238
			h0.328v-0.326V59.404c0-1.11-0.398-2.072-1.187-2.859c-0.786-0.787-1.749-1.186-2.858-1.186h-3.718h-0.326v0.329v17.347v0.325
			h0.326h1.241h0.326v-0.325v-15.78h2.148c0.604,0,1.1,0.205,1.521,0.63C160.66,58.307,160.866,58.803,160.866,59.404z"/>
		<path fill="#143655" stroke="#143655" stroke-width="0.25" stroke-miterlimit="10" d="M173.518,69.314v-9.91
			c0-1.109-0.397-2.071-1.188-2.859c-0.786-0.787-1.749-1.186-2.857-1.186c-1.107,0-2.07,0.398-2.856,1.186
			c-0.786,0.787-1.187,1.75-1.187,2.859v9.91c0,1.108,0.398,2.07,1.187,2.856c0.786,0.786,1.749,1.188,2.856,1.188
			c1.108,0,2.071-0.4,2.857-1.188C173.119,71.387,173.518,70.424,173.518,69.314z M167.322,59.404c0-0.602,0.205-1.1,0.63-1.521
			c0.423-0.425,0.92-0.63,1.521-0.63c0.602,0,1.099,0.205,1.521,0.63c0.422,0.424,0.63,0.922,0.63,1.521v9.91
			c0,0.602-0.208,1.098-0.63,1.521c-0.424,0.425-0.92,0.627-1.521,0.627c-0.603,0-1.1-0.203-1.521-0.627
			c-0.425-0.425-0.63-0.922-0.63-1.521V59.404z"/>
		<polygon fill="#143655" stroke="#143655" stroke-width="0.25" stroke-miterlimit="10" points="183.035,73.359 183.035,73.033 
			183.035,71.792 183.035,71.464 182.707,71.464 178.078,71.464 178.078,55.688 178.078,55.359 177.752,55.359 176.514,55.359 
			176.185,55.359 176.185,55.688 176.185,73.033 176.185,73.359 176.514,73.359 182.707,73.359 		"/>
		<path fill="#143655" stroke="#143655" stroke-width="0.25" stroke-miterlimit="10" d="M192.555,69.314v-9.91
			c0-1.109-0.399-2.072-1.188-2.859s-1.749-1.186-2.858-1.186c-1.107,0-2.07,0.398-2.857,1.186c-0.786,0.788-1.188,1.75-1.188,2.859
			v9.91c0,1.108,0.398,2.07,1.188,2.856c0.787,0.786,1.75,1.188,2.857,1.188c1.109,0,2.071-0.4,2.858-1.188
			C192.152,71.387,192.555,70.425,192.555,69.314z M186.355,59.404c0-0.602,0.207-1.1,0.631-1.521
			c0.424-0.425,0.921-0.63,1.521-0.63c0.601,0,1.099,0.206,1.521,0.63c0.424,0.424,0.631,0.922,0.631,1.521v9.91
			c0,0.601-0.207,1.098-0.631,1.521c-0.424,0.425-0.922,0.627-1.521,0.627s-1.098-0.203-1.521-0.627
			c-0.424-0.425-0.631-0.922-0.631-1.521V59.404z"/>
		<path fill="#143655" stroke="#143655" stroke-width="0.25" stroke-miterlimit="10" d="M199.266,55.359
			c-1.109,0-2.072,0.398-2.856,1.186c-0.789,0.787-1.188,1.75-1.188,2.859v9.91c0,1.108,0.399,2.07,1.188,2.856
			c0.784,0.786,1.747,1.188,2.856,1.188c1.107,0,2.069-0.4,2.856-1.188s1.188-1.748,1.188-2.856v-3.717V65.27h-0.328h-3.717h-0.328
			v0.328v1.238v0.327h0.328h2.149v2.151c0,0.6-0.207,1.097-0.63,1.521c-0.424,0.423-0.921,0.627-1.521,0.627
			s-1.099-0.204-1.521-0.627c-0.423-0.425-0.629-0.921-0.629-1.521v-9.912c0-0.603,0.206-1.098,0.629-1.521
			c0.424-0.425,0.921-0.63,1.521-0.63c0.601,0,1.1,0.205,1.521,0.63c0.423,0.424,0.63,0.922,0.63,1.521v1.238v0.328h0.326h1.237
			h0.328v-0.328v-1.238c0-1.108-0.397-2.071-1.187-2.858S200.373,55.359,199.266,55.359z"/>
		<polygon fill="#143655" stroke="#143655" stroke-width="0.25" stroke-miterlimit="10" points="206.305,55.359 205.977,55.359 
			205.977,55.688 205.977,73.033 205.977,73.359 206.305,73.359 207.543,73.359 207.871,73.359 207.871,73.033 207.871,55.688 
			207.871,55.359 207.543,55.359 		"/>
		<path fill="#143655" stroke="#143655" stroke-width="0.25" stroke-miterlimit="10" d="M218.627,69.314v-1.237v-0.328h-0.328
			h-1.238h-0.326v0.328v1.237c0,0.601-0.207,1.098-0.631,1.521c-0.422,0.425-0.92,0.627-1.521,0.627s-1.1-0.202-1.521-0.627
			s-0.629-0.922-0.629-1.521v-9.91c0-0.602,0.207-1.1,0.629-1.521c0.422-0.425,0.92-0.63,1.521-0.63c0.604,0,1.102,0.206,1.521,0.63
			c0.424,0.424,0.631,0.922,0.631,1.521v1.238v0.328h0.326h1.238h0.328v-0.328v-1.238c0-1.109-0.398-2.071-1.188-2.859
			c-0.787-0.787-1.748-1.186-2.857-1.186s-2.07,0.398-2.857,1.186s-1.187,1.75-1.187,2.859v9.91c0,1.107,0.399,2.07,1.187,2.856
			s1.748,1.188,2.857,1.188s2.07-0.4,2.857-1.188C218.227,71.387,218.627,70.424,218.627,69.314z"/>
		<path fill="#143655" stroke="#143655" stroke-width="0.25" stroke-miterlimit="10" d="M225.337,55.359
			c-1.106,0-2.067,0.398-2.856,1.186c-0.787,0.788-1.188,1.75-1.188,2.859v13.629v0.326h0.328h1.236h0.328v-0.326v-5.869h4.303
			v5.869v0.326h0.326h1.238h0.328v-0.326V55.688V55.36h-0.328L225.337,55.359L225.337,55.359z M223.185,59.404
			c0-0.602,0.207-1.1,0.629-1.521c0.425-0.425,0.922-0.63,1.521-0.63h2.15v8.019h-4.301V59.404L223.185,59.404z"/>
		<path fill="#143655" stroke="#143655" stroke-width="0.25" stroke-miterlimit="10" d="M238.244,60.971h0.328h1.236h0.328v-0.328
			v-1.238c0-1.107-0.397-2.07-1.187-2.857c-0.786-0.785-1.748-1.186-2.859-1.186c-1.108,0-2.069,0.398-2.854,1.186
			c-0.787,0.788-1.188,1.75-1.188,2.857v1.238c0,1.451,1.061,2.877,3.239,4.36c2.44,1.659,2.954,2.587,2.954,3.074v1.237
			c0,0.602-0.206,1.098-0.631,1.521c-0.422,0.423-0.92,0.627-1.521,0.627c-0.6,0-1.097-0.204-1.52-0.627
			c-0.425-0.425-0.63-0.921-0.63-1.521v-1.237v-0.328h-0.327h-1.238h-0.327v0.328v1.237c0,1.108,0.398,2.069,1.188,2.856
			c0.785,0.786,1.746,1.188,2.854,1.188c1.111,0,2.073-0.4,2.859-1.188c0.786-0.787,1.187-1.748,1.187-2.856v-1.237
			c0-1.452-1.061-2.878-3.24-4.358c-2.44-1.662-2.953-2.591-2.953-3.076v-1.238c0-0.602,0.205-1.098,0.63-1.521
			c0.423-0.425,0.919-0.63,1.52-0.63c0.603,0,1.101,0.205,1.521,0.63c0.424,0.423,0.63,0.921,0.63,1.521v1.238V60.971
			L238.244,60.971z"/>
		<path fill="#143655" stroke="#143655" stroke-width="0.25" stroke-miterlimit="10" d="M130.222,81.926h-5.012h-0.328v0.328v23.389
			v0.328h0.328h5.012c1.465,0,2.733-0.527,3.773-1.566c1.039-1.041,1.566-2.309,1.566-3.771V87.266c0-1.465-0.527-2.734-1.566-3.771
			C132.955,82.453,131.685,81.926,130.222,81.926z M127.207,84.252h3.015c0.842,0,1.541,0.287,2.133,0.88
			c0.594,0.595,0.883,1.291,0.883,2.134v13.365c0,0.842-0.289,1.538-0.883,2.133c-0.592,0.594-1.291,0.881-2.133,0.881h-3.015
			V84.252z"/>
		<path fill="#143655" stroke="#143655" stroke-width="0.25" stroke-miterlimit="10" d="M144.22,81.926
			c-1.465,0-2.733,0.527-3.772,1.566c-1.039,1.039-1.565,2.309-1.565,3.771v18.379v0.326h0.327h1.671h0.328v-0.326v-8.027h6.026
			v8.027v0.326h0.328h1.67h0.328v-0.326V82.254v-0.328h-0.328H144.22z M141.206,87.266c0-0.843,0.288-1.541,0.881-2.134
			c0.594-0.593,1.29-0.88,2.133-0.88h3.014V95.29h-6.026L141.206,87.266L141.206,87.266z"/>
		<polygon fill="#143655" stroke="#143655" stroke-width="0.25" stroke-miterlimit="10" points="159.585,81.926 159.257,81.926 
			159.257,82.254 159.257,105.643 159.257,105.971 159.585,105.971 161.256,105.971 161.584,105.971 161.584,105.643 
			161.584,97.615 167.935,97.615 168.268,97.615 168.268,97.289 168.268,95.617 168.268,95.29 167.935,95.29 161.584,95.29 
			161.584,84.252 167.935,84.252 168.268,84.252 168.268,83.924 168.268,82.254 168.268,81.926 167.935,81.926 		"/>
		<polygon fill="#143655" stroke="#143655" stroke-width="0.25" stroke-miterlimit="10" points="171.912,81.926 171.584,81.926 
			171.584,82.254 171.584,105.643 171.584,105.971 171.912,105.971 173.583,105.971 173.911,105.971 173.911,105.643 
			173.911,82.254 173.911,81.926 173.583,81.926 		"/>
		<path fill="#143655" stroke="#143655" stroke-width="0.25" stroke-miterlimit="10" d="M182.566,81.926
			c-1.463,0-2.731,0.527-3.773,1.566c-1.037,1.039-1.563,2.309-1.563,3.771v13.365c0,1.465,0.525,2.732,1.563,3.771
			c1.042,1.039,2.313,1.566,3.773,1.566c1.465,0,2.733-0.527,3.773-1.566c1.04-1.041,1.566-2.309,1.566-3.771V87.266
			c0-1.465-0.526-2.734-1.566-3.771C185.301,82.454,184.032,81.926,182.566,81.926z M179.555,87.266
			c0-0.843,0.288-1.541,0.883-2.134c0.593-0.593,1.289-0.88,2.133-0.88c0.842,0,1.539,0.287,2.133,0.88
			c0.593,0.595,0.88,1.291,0.88,2.134v13.365c0,0.842-0.287,1.538-0.88,2.133c-0.594,0.594-1.291,0.881-2.133,0.881
			c-0.844,0-1.54-0.287-2.133-0.881c-0.595-0.593-0.883-1.291-0.883-2.133V87.266z"/>
		<path fill="#143655" stroke="#143655" stroke-width="0.25" stroke-miterlimit="10" d="M195.632,81.926
			c-1.466,0-2.731,0.527-3.772,1.566c-1.038,1.039-1.565,2.309-1.565,3.771v13.365c0,1.465,0.526,2.732,1.565,3.771
			c1.041,1.039,2.309,1.566,3.772,1.566s2.733-0.527,3.773-1.566c1.038-1.039,1.565-2.309,1.565-3.771v-1.67v-0.328h-0.328h-1.672
			h-0.326v0.328v1.671c0,0.843-0.289,1.538-0.881,2.134c-0.594,0.594-1.291,0.881-2.134,0.881s-1.539-0.287-2.132-0.881
			c-0.594-0.594-0.883-1.291-0.883-2.134V87.266c0-0.843,0.289-1.541,0.883-2.134c0.593-0.593,1.289-0.88,2.132-0.88
			s1.54,0.287,2.134,0.88c0.592,0.595,0.881,1.291,0.881,2.134v1.67v0.328h0.326h1.672h0.328v-0.328v-1.67
			c0-1.465-0.527-2.734-1.565-3.771C198.365,82.453,197.098,81.926,195.632,81.926z"/>
		<path fill="#143655" stroke="#143655" stroke-width="0.25" stroke-miterlimit="10" d="M208.693,81.926h-5.012h-0.326v0.328v23.389
			v0.328h0.326h1.67h0.328v-0.328v-8.024h3.014c0.844,0,1.539,0.288,2.134,0.882c0.593,0.594,0.881,1.291,0.881,2.133v5.014v0.326
			h0.327h1.672h0.327v-0.326v-5.014c0-1.465-0.525-2.732-1.564-3.771c-0.145-0.146-0.295-0.279-0.446-0.403
			c0.149-0.123,0.302-0.259,0.446-0.401c1.039-1.041,1.564-2.311,1.564-3.772V87.27c0-1.465-0.525-2.732-1.564-3.771
			C211.43,82.453,210.16,81.926,208.693,81.926z M205.682,84.252h3.014c0.844,0,1.541,0.287,2.134,0.88s0.881,1.291,0.881,2.134
			v5.014c0,0.843-0.288,1.539-0.881,2.132s-1.29,0.881-2.134,0.881h-3.014V84.252z"/>
		<path fill="#143655" stroke="#143655" stroke-width="0.25" stroke-miterlimit="10" d="M225.1,81.926h-0.326v0.328v18.377
			c0,0.842-0.289,1.538-0.881,2.133c-0.595,0.594-1.291,0.881-2.135,0.881c-0.842,0-1.538-0.287-2.132-0.881
			c-0.594-0.595-0.883-1.291-0.883-2.133V82.254v-0.328h-0.326h-1.671h-0.328v0.328v18.377c0,1.465,0.527,2.732,1.564,3.773
			c1.041,1.039,2.312,1.564,3.773,1.564c1.465,0,2.734-0.525,3.773-1.564c1.039-1.041,1.565-2.311,1.565-3.773V82.254v-0.328h-0.327
			H225.1z"/>
		<path fill="#143655" stroke="#143655" stroke-width="0.25" stroke-miterlimit="10" d="M239.833,81.926H229.81h-0.326v0.328v1.67
			v0.328h0.326h8.024v4.684c0,0.685-0.699,1.975-4.035,4.242c-2.862,1.946-4.315,3.895-4.315,5.782v6.683v0.328h0.326h10.022h0.328
			v-0.328v-1.672v-0.326h-0.328h-8.024V98.96c0-0.683,0.698-1.974,4.032-4.239c2.865-1.949,4.32-3.896,4.32-5.785v-6.682v-0.328
			H239.833z"/>
		<polygon fill="#143655" stroke="#143655" stroke-width="0.25" stroke-miterlimit="10" points="188.525,53.948 191.708,51.961 
			190.894,50.884 188.048,53.302 		"/>
	</g>
</g>
</svg>
